%TF.GenerationSoftware,KiCad,Pcbnew,7.0.9*%
%TF.CreationDate,2024-01-16T18:08:56-05:00*%
%TF.ProjectId,FilpperZero_Gameboy_Link_V2,46696c70-7065-4725-9a65-726f5f47616d,1.2*%
%TF.SameCoordinates,Original*%
%TF.FileFunction,Legend,Bot*%
%TF.FilePolarity,Positive*%
%FSLAX46Y46*%
G04 Gerber Fmt 4.6, Leading zero omitted, Abs format (unit mm)*
G04 Created by KiCad (PCBNEW 7.0.9) date 2024-01-16 18:08:56*
%MOMM*%
%LPD*%
G01*
G04 APERTURE LIST*
%ADD10C,0.150000*%
%ADD11C,0.120000*%
G04 APERTURE END LIST*
D10*
X137979887Y-53295609D02*
X137837030Y-53343228D01*
X137837030Y-53343228D02*
X137789411Y-53390847D01*
X137789411Y-53390847D02*
X137741792Y-53486085D01*
X137741792Y-53486085D02*
X137741792Y-53628942D01*
X137741792Y-53628942D02*
X137789411Y-53724180D01*
X137789411Y-53724180D02*
X137837030Y-53771800D01*
X137837030Y-53771800D02*
X137932268Y-53819419D01*
X137932268Y-53819419D02*
X138313220Y-53819419D01*
X138313220Y-53819419D02*
X138313220Y-52819419D01*
X138313220Y-52819419D02*
X137979887Y-52819419D01*
X137979887Y-52819419D02*
X137884649Y-52867038D01*
X137884649Y-52867038D02*
X137837030Y-52914657D01*
X137837030Y-52914657D02*
X137789411Y-53009895D01*
X137789411Y-53009895D02*
X137789411Y-53105133D01*
X137789411Y-53105133D02*
X137837030Y-53200371D01*
X137837030Y-53200371D02*
X137884649Y-53247990D01*
X137884649Y-53247990D02*
X137979887Y-53295609D01*
X137979887Y-53295609D02*
X138313220Y-53295609D01*
X137408458Y-52819419D02*
X136789411Y-52819419D01*
X136789411Y-52819419D02*
X137122744Y-53200371D01*
X137122744Y-53200371D02*
X136979887Y-53200371D01*
X136979887Y-53200371D02*
X136884649Y-53247990D01*
X136884649Y-53247990D02*
X136837030Y-53295609D01*
X136837030Y-53295609D02*
X136789411Y-53390847D01*
X136789411Y-53390847D02*
X136789411Y-53628942D01*
X136789411Y-53628942D02*
X136837030Y-53724180D01*
X136837030Y-53724180D02*
X136884649Y-53771800D01*
X136884649Y-53771800D02*
X136979887Y-53819419D01*
X136979887Y-53819419D02*
X137265601Y-53819419D01*
X137265601Y-53819419D02*
X137360839Y-53771800D01*
X137360839Y-53771800D02*
X137408458Y-53724180D01*
X137979887Y-55835609D02*
X137837030Y-55883228D01*
X137837030Y-55883228D02*
X137789411Y-55930847D01*
X137789411Y-55930847D02*
X137741792Y-56026085D01*
X137741792Y-56026085D02*
X137741792Y-56168942D01*
X137741792Y-56168942D02*
X137789411Y-56264180D01*
X137789411Y-56264180D02*
X137837030Y-56311800D01*
X137837030Y-56311800D02*
X137932268Y-56359419D01*
X137932268Y-56359419D02*
X138313220Y-56359419D01*
X138313220Y-56359419D02*
X138313220Y-55359419D01*
X138313220Y-55359419D02*
X137979887Y-55359419D01*
X137979887Y-55359419D02*
X137884649Y-55407038D01*
X137884649Y-55407038D02*
X137837030Y-55454657D01*
X137837030Y-55454657D02*
X137789411Y-55549895D01*
X137789411Y-55549895D02*
X137789411Y-55645133D01*
X137789411Y-55645133D02*
X137837030Y-55740371D01*
X137837030Y-55740371D02*
X137884649Y-55787990D01*
X137884649Y-55787990D02*
X137979887Y-55835609D01*
X137979887Y-55835609D02*
X138313220Y-55835609D01*
X137360839Y-55454657D02*
X137313220Y-55407038D01*
X137313220Y-55407038D02*
X137217982Y-55359419D01*
X137217982Y-55359419D02*
X136979887Y-55359419D01*
X136979887Y-55359419D02*
X136884649Y-55407038D01*
X136884649Y-55407038D02*
X136837030Y-55454657D01*
X136837030Y-55454657D02*
X136789411Y-55549895D01*
X136789411Y-55549895D02*
X136789411Y-55645133D01*
X136789411Y-55645133D02*
X136837030Y-55787990D01*
X136837030Y-55787990D02*
X137408458Y-56359419D01*
X137408458Y-56359419D02*
X136789411Y-56359419D01*
X137741792Y-58854980D02*
X137789411Y-58902600D01*
X137789411Y-58902600D02*
X137932268Y-58950219D01*
X137932268Y-58950219D02*
X138027506Y-58950219D01*
X138027506Y-58950219D02*
X138170363Y-58902600D01*
X138170363Y-58902600D02*
X138265601Y-58807361D01*
X138265601Y-58807361D02*
X138313220Y-58712123D01*
X138313220Y-58712123D02*
X138360839Y-58521647D01*
X138360839Y-58521647D02*
X138360839Y-58378790D01*
X138360839Y-58378790D02*
X138313220Y-58188314D01*
X138313220Y-58188314D02*
X138265601Y-58093076D01*
X138265601Y-58093076D02*
X138170363Y-57997838D01*
X138170363Y-57997838D02*
X138027506Y-57950219D01*
X138027506Y-57950219D02*
X137932268Y-57950219D01*
X137932268Y-57950219D02*
X137789411Y-57997838D01*
X137789411Y-57997838D02*
X137741792Y-58045457D01*
X137408458Y-57950219D02*
X136789411Y-57950219D01*
X136789411Y-57950219D02*
X137122744Y-58331171D01*
X137122744Y-58331171D02*
X136979887Y-58331171D01*
X136979887Y-58331171D02*
X136884649Y-58378790D01*
X136884649Y-58378790D02*
X136837030Y-58426409D01*
X136837030Y-58426409D02*
X136789411Y-58521647D01*
X136789411Y-58521647D02*
X136789411Y-58759742D01*
X136789411Y-58759742D02*
X136837030Y-58854980D01*
X136837030Y-58854980D02*
X136884649Y-58902600D01*
X136884649Y-58902600D02*
X136979887Y-58950219D01*
X136979887Y-58950219D02*
X137265601Y-58950219D01*
X137265601Y-58950219D02*
X137360839Y-58902600D01*
X137360839Y-58902600D02*
X137408458Y-58854980D01*
X138864811Y-60512438D02*
X138960049Y-60464819D01*
X138960049Y-60464819D02*
X139102906Y-60464819D01*
X139102906Y-60464819D02*
X139245763Y-60512438D01*
X139245763Y-60512438D02*
X139341001Y-60607676D01*
X139341001Y-60607676D02*
X139388620Y-60702914D01*
X139388620Y-60702914D02*
X139436239Y-60893390D01*
X139436239Y-60893390D02*
X139436239Y-61036247D01*
X139436239Y-61036247D02*
X139388620Y-61226723D01*
X139388620Y-61226723D02*
X139341001Y-61321961D01*
X139341001Y-61321961D02*
X139245763Y-61417200D01*
X139245763Y-61417200D02*
X139102906Y-61464819D01*
X139102906Y-61464819D02*
X139007668Y-61464819D01*
X139007668Y-61464819D02*
X138864811Y-61417200D01*
X138864811Y-61417200D02*
X138817192Y-61369580D01*
X138817192Y-61369580D02*
X138817192Y-61036247D01*
X138817192Y-61036247D02*
X139007668Y-61036247D01*
X138388620Y-61464819D02*
X138388620Y-60464819D01*
X138388620Y-60464819D02*
X137817192Y-61464819D01*
X137817192Y-61464819D02*
X137817192Y-60464819D01*
X137341001Y-61464819D02*
X137341001Y-60464819D01*
X137341001Y-60464819D02*
X137102906Y-60464819D01*
X137102906Y-60464819D02*
X136960049Y-60512438D01*
X136960049Y-60512438D02*
X136864811Y-60607676D01*
X136864811Y-60607676D02*
X136817192Y-60702914D01*
X136817192Y-60702914D02*
X136769573Y-60893390D01*
X136769573Y-60893390D02*
X136769573Y-61036247D01*
X136769573Y-61036247D02*
X136817192Y-61226723D01*
X136817192Y-61226723D02*
X136864811Y-61321961D01*
X136864811Y-61321961D02*
X136960049Y-61417200D01*
X136960049Y-61417200D02*
X137102906Y-61464819D01*
X137102906Y-61464819D02*
X137341001Y-61464819D01*
X140882666Y-58366819D02*
X141215999Y-57890628D01*
X141454094Y-58366819D02*
X141454094Y-57366819D01*
X141454094Y-57366819D02*
X141073142Y-57366819D01*
X141073142Y-57366819D02*
X140977904Y-57414438D01*
X140977904Y-57414438D02*
X140930285Y-57462057D01*
X140930285Y-57462057D02*
X140882666Y-57557295D01*
X140882666Y-57557295D02*
X140882666Y-57700152D01*
X140882666Y-57700152D02*
X140930285Y-57795390D01*
X140930285Y-57795390D02*
X140977904Y-57843009D01*
X140977904Y-57843009D02*
X141073142Y-57890628D01*
X141073142Y-57890628D02*
X141454094Y-57890628D01*
X139930285Y-58366819D02*
X140501713Y-58366819D01*
X140215999Y-58366819D02*
X140215999Y-57366819D01*
X140215999Y-57366819D02*
X140311237Y-57509676D01*
X140311237Y-57509676D02*
X140406475Y-57604914D01*
X140406475Y-57604914D02*
X140501713Y-57652533D01*
X135461333Y-62446819D02*
X135461333Y-63161104D01*
X135461333Y-63161104D02*
X135508952Y-63303961D01*
X135508952Y-63303961D02*
X135604190Y-63399200D01*
X135604190Y-63399200D02*
X135747047Y-63446819D01*
X135747047Y-63446819D02*
X135842285Y-63446819D01*
X134461333Y-63446819D02*
X135032761Y-63446819D01*
X134747047Y-63446819D02*
X134747047Y-62446819D01*
X134747047Y-62446819D02*
X134842285Y-62589676D01*
X134842285Y-62589676D02*
X134937523Y-62684914D01*
X134937523Y-62684914D02*
X135032761Y-62732533D01*
D11*
%TO.C,R1*%
X140478742Y-58786500D02*
X140953258Y-58786500D01*
X140478742Y-59831500D02*
X140953258Y-59831500D01*
%TO.C,J1*%
X133798000Y-52010000D02*
X136458000Y-52010000D01*
X133798000Y-59690000D02*
X133798000Y-52010000D01*
X133798000Y-59690000D02*
X136458000Y-59690000D01*
X133798000Y-60960000D02*
X133798000Y-62290000D01*
X133798000Y-62290000D02*
X135128000Y-62290000D01*
X136458000Y-59690000D02*
X136458000Y-52010000D01*
%TD*%
M02*
