%TF.GenerationSoftware,KiCad,Pcbnew,7.0.9*%
%TF.CreationDate,2024-01-16T18:08:56-05:00*%
%TF.ProjectId,FilpperZero_Gameboy_Link_V2,46696c70-7065-4725-9a65-726f5f47616d,1.2*%
%TF.SameCoordinates,Original*%
%TF.FileFunction,Legend,Top*%
%TF.FilePolarity,Positive*%
%FSLAX46Y46*%
G04 Gerber Fmt 4.6, Leading zero omitted, Abs format (unit mm)*
G04 Created by KiCad (PCBNEW 7.0.9) date 2024-01-16 18:08:56*
%MOMM*%
%LPD*%
G01*
G04 APERTURE LIST*
%ADD10C,0.000000*%
%ADD11C,0.100000*%
%ADD12C,0.125000*%
%ADD13C,0.150000*%
%ADD14C,0.120000*%
%ADD15C,0.127000*%
G04 APERTURE END LIST*
D10*
G36*
X142119835Y-60466408D02*
G01*
X142116181Y-60593325D01*
X142111423Y-60709629D01*
X142105399Y-60816180D01*
X142097949Y-60913841D01*
X142091155Y-60981230D01*
X142088912Y-61003474D01*
X142078126Y-61085940D01*
X142065431Y-61162100D01*
X142050665Y-61232816D01*
X142033667Y-61298951D01*
X142014276Y-61361366D01*
X141992331Y-61420921D01*
X141967671Y-61478480D01*
X141940135Y-61534904D01*
X141909561Y-61591053D01*
X141875789Y-61647791D01*
X141875787Y-61647791D01*
X141836086Y-61711350D01*
X141799716Y-61767300D01*
X141765581Y-61816126D01*
X141732585Y-61858311D01*
X141699629Y-61894341D01*
X141682825Y-61910198D01*
X141665620Y-61924698D01*
X141647877Y-61937901D01*
X141629459Y-61949867D01*
X141610229Y-61960657D01*
X141590050Y-61970332D01*
X141568786Y-61978951D01*
X141546298Y-61986576D01*
X141497105Y-61999085D01*
X141441375Y-62008341D01*
X141378012Y-62014829D01*
X141305919Y-62019032D01*
X141224000Y-62021436D01*
X141026297Y-62022777D01*
X140922646Y-62022491D01*
X140830679Y-62021342D01*
X140749360Y-62018893D01*
X140677656Y-62014710D01*
X140645087Y-62011831D01*
X140614533Y-62008354D01*
X140585867Y-62004226D01*
X140558957Y-61999392D01*
X140533676Y-61993796D01*
X140509894Y-61987385D01*
X140487482Y-61980104D01*
X140466310Y-61971899D01*
X140446249Y-61962715D01*
X140427170Y-61952497D01*
X140408944Y-61941191D01*
X140391441Y-61928743D01*
X140374533Y-61915098D01*
X140358089Y-61900201D01*
X140341981Y-61883998D01*
X140326079Y-61866434D01*
X140310254Y-61847456D01*
X140294377Y-61827008D01*
X140261950Y-61781485D01*
X140227763Y-61729429D01*
X140190783Y-61670405D01*
X140162646Y-61622131D01*
X140136153Y-61570920D01*
X140111252Y-61516537D01*
X140087889Y-61458744D01*
X140066010Y-61397302D01*
X140045562Y-61331975D01*
X140026492Y-61262525D01*
X140008746Y-61188714D01*
X139992271Y-61110305D01*
X139977013Y-61027060D01*
X139972049Y-60993706D01*
X140497501Y-60993706D01*
X140497741Y-60999693D01*
X140498575Y-61005792D01*
X140500005Y-61012002D01*
X140504657Y-61024750D01*
X140511712Y-61037929D01*
X140521181Y-61051529D01*
X140533078Y-61065541D01*
X140547415Y-61079955D01*
X140564205Y-61094763D01*
X140583461Y-61109955D01*
X140605196Y-61125523D01*
X140629423Y-61141457D01*
X140629423Y-61141456D01*
X140649216Y-61153096D01*
X140670526Y-61163988D01*
X140717236Y-61183524D01*
X140768626Y-61200065D01*
X140823772Y-61213609D01*
X140881745Y-61224156D01*
X140941621Y-61231705D01*
X141002474Y-61236256D01*
X141063376Y-61237807D01*
X141123403Y-61236357D01*
X141181627Y-61231907D01*
X141237124Y-61224455D01*
X141288966Y-61214000D01*
X141336228Y-61200542D01*
X141357852Y-61192686D01*
X141377983Y-61184079D01*
X141396507Y-61174721D01*
X141413306Y-61164612D01*
X141428266Y-61153751D01*
X141441271Y-61142139D01*
X141477808Y-61103569D01*
X141506787Y-61068306D01*
X141528043Y-61036237D01*
X141535723Y-61021365D01*
X141541411Y-61007249D01*
X141545084Y-60993876D01*
X141546723Y-60981230D01*
X141546308Y-60969298D01*
X141543817Y-60958066D01*
X141539230Y-60947519D01*
X141532525Y-60937644D01*
X141523684Y-60928427D01*
X141512684Y-60919852D01*
X141499505Y-60911906D01*
X141484126Y-60904576D01*
X141466528Y-60897846D01*
X141446688Y-60891703D01*
X141400203Y-60881121D01*
X141344507Y-60872716D01*
X141279434Y-60866375D01*
X141204818Y-60861986D01*
X141120495Y-60859436D01*
X141026299Y-60858611D01*
X140979260Y-60858934D01*
X140934328Y-60859899D01*
X140891514Y-60861495D01*
X140850832Y-60863714D01*
X140812295Y-60866547D01*
X140775915Y-60869984D01*
X140741706Y-60874016D01*
X140709679Y-60878635D01*
X140679849Y-60883830D01*
X140652227Y-60889593D01*
X140626827Y-60895914D01*
X140603662Y-60902785D01*
X140582744Y-60910196D01*
X140564087Y-60918138D01*
X140547702Y-60926602D01*
X140533604Y-60935579D01*
X140521805Y-60945059D01*
X140512317Y-60955034D01*
X140505154Y-60965494D01*
X140502448Y-60970903D01*
X140500328Y-60976430D01*
X140498796Y-60982073D01*
X140497853Y-60987832D01*
X140497501Y-60993706D01*
X139972049Y-60993706D01*
X139949936Y-60845113D01*
X139927088Y-60640973D01*
X139910383Y-60440802D01*
X140087115Y-60440802D01*
X140088931Y-60526140D01*
X140093883Y-60600155D01*
X140102181Y-60660535D01*
X140114032Y-60704972D01*
X140124315Y-60730533D01*
X140134423Y-60752925D01*
X140139458Y-60762943D01*
X140144506Y-60772181D01*
X140149584Y-60780641D01*
X140154712Y-60788328D01*
X140159907Y-60795245D01*
X140165190Y-60801397D01*
X140170577Y-60806787D01*
X140176089Y-60811419D01*
X140181743Y-60815296D01*
X140187559Y-60818423D01*
X140193554Y-60820802D01*
X140199747Y-60822438D01*
X140206158Y-60823335D01*
X140212804Y-60823496D01*
X140219704Y-60822924D01*
X140226878Y-60821625D01*
X140234343Y-60819601D01*
X140242118Y-60816856D01*
X140250221Y-60813394D01*
X140258673Y-60809219D01*
X140267490Y-60804334D01*
X140276691Y-60798743D01*
X140296323Y-60785459D01*
X140317717Y-60769397D01*
X140341022Y-60750585D01*
X140359938Y-60737153D01*
X140383683Y-60724097D01*
X140411904Y-60711485D01*
X140444250Y-60699385D01*
X140480371Y-60687865D01*
X140519914Y-60676992D01*
X140562528Y-60666833D01*
X140607863Y-60657457D01*
X140655566Y-60648930D01*
X140705286Y-60641321D01*
X140756673Y-60634698D01*
X140809374Y-60629127D01*
X140863038Y-60624676D01*
X140917315Y-60621413D01*
X140971852Y-60619406D01*
X141026298Y-60618722D01*
X141080744Y-60619406D01*
X141135281Y-60621413D01*
X141189557Y-60624676D01*
X141243222Y-60629127D01*
X141295923Y-60634698D01*
X141347309Y-60641321D01*
X141397030Y-60648930D01*
X141444733Y-60657457D01*
X141490067Y-60666833D01*
X141532682Y-60676992D01*
X141572225Y-60687865D01*
X141608345Y-60699385D01*
X141640692Y-60711485D01*
X141668913Y-60724097D01*
X141692657Y-60737153D01*
X141702740Y-60743826D01*
X141711573Y-60750585D01*
X141734878Y-60769397D01*
X141756272Y-60785459D01*
X141766298Y-60792450D01*
X141775903Y-60798743D01*
X141785105Y-60804334D01*
X141793922Y-60809219D01*
X141802374Y-60813394D01*
X141810477Y-60816856D01*
X141818252Y-60819601D01*
X141825717Y-60821625D01*
X141832891Y-60822924D01*
X141839791Y-60823496D01*
X141846437Y-60823335D01*
X141852848Y-60822438D01*
X141859041Y-60820802D01*
X141865037Y-60818423D01*
X141870852Y-60815296D01*
X141876506Y-60811419D01*
X141882018Y-60806787D01*
X141887406Y-60801397D01*
X141892688Y-60795245D01*
X141897884Y-60788328D01*
X141903011Y-60780641D01*
X141908090Y-60772181D01*
X141913137Y-60762943D01*
X141918173Y-60752925D01*
X141928281Y-60730533D01*
X141938564Y-60704972D01*
X141950415Y-60660535D01*
X141958713Y-60600155D01*
X141963665Y-60526140D01*
X141965480Y-60440802D01*
X141964368Y-60346451D01*
X141960535Y-60245396D01*
X141945545Y-60032419D01*
X141922177Y-59820351D01*
X141907873Y-59720434D01*
X141892100Y-59627675D01*
X141875066Y-59544384D01*
X141856981Y-59472872D01*
X141838052Y-59415448D01*
X141818488Y-59374423D01*
X141806856Y-59362190D01*
X141787892Y-59350747D01*
X141729924Y-59330227D01*
X141648496Y-59312865D01*
X141547517Y-59298659D01*
X141430898Y-59287610D01*
X141302548Y-59279718D01*
X141166378Y-59274983D01*
X141026298Y-59273405D01*
X140886218Y-59274983D01*
X140750048Y-59279718D01*
X140621698Y-59287610D01*
X140505078Y-59298659D01*
X140404100Y-59312865D01*
X140322671Y-59330227D01*
X140264703Y-59350747D01*
X140245739Y-59362190D01*
X140234107Y-59374423D01*
X140214543Y-59415448D01*
X140195614Y-59472872D01*
X140177529Y-59544384D01*
X140160495Y-59627675D01*
X140144723Y-59720434D01*
X140130418Y-59820351D01*
X140107051Y-60032419D01*
X140092060Y-60245396D01*
X140088228Y-60346451D01*
X140087115Y-60440802D01*
X139910383Y-60440802D01*
X139908041Y-60412738D01*
X139887536Y-60115673D01*
X139880534Y-59993725D01*
X139876179Y-59887110D01*
X139875106Y-59838992D01*
X139874830Y-59794035D01*
X139875396Y-59752015D01*
X139876848Y-59712707D01*
X139879232Y-59675889D01*
X139882593Y-59641334D01*
X139886976Y-59608821D01*
X139892426Y-59578124D01*
X139898987Y-59549019D01*
X139906705Y-59521282D01*
X139915625Y-59494690D01*
X139925792Y-59469018D01*
X139937250Y-59444042D01*
X139950045Y-59419537D01*
X139964222Y-59395281D01*
X139979826Y-59371048D01*
X139996902Y-59346615D01*
X140015494Y-59321758D01*
X140057410Y-59269873D01*
X140105933Y-59213602D01*
X140161423Y-59151152D01*
X140212271Y-59095141D01*
X140259618Y-59045230D01*
X140304285Y-59001076D01*
X140347094Y-58962337D01*
X140388869Y-58928668D01*
X140430431Y-58899727D01*
X140472601Y-58875170D01*
X140516204Y-58854655D01*
X140562059Y-58837839D01*
X140610991Y-58824378D01*
X140663820Y-58813929D01*
X140721369Y-58806150D01*
X140784461Y-58800696D01*
X140853917Y-58797225D01*
X140930560Y-58795395D01*
X141015212Y-58794861D01*
X141095107Y-58795481D01*
X141168475Y-58797483D01*
X141235913Y-58801078D01*
X141298016Y-58806478D01*
X141355381Y-58813894D01*
X141408603Y-58823538D01*
X141433847Y-58829262D01*
X141458278Y-58835622D01*
X141481972Y-58842644D01*
X141505003Y-58850356D01*
X141527445Y-58858783D01*
X141549373Y-58867953D01*
X141570862Y-58877891D01*
X141591985Y-58888623D01*
X141612818Y-58900177D01*
X141633434Y-58912579D01*
X141653909Y-58925855D01*
X141674317Y-58940032D01*
X141715228Y-58971194D01*
X141756766Y-59006275D01*
X141799524Y-59045488D01*
X141844100Y-59089044D01*
X141936962Y-59185854D01*
X141974894Y-59230339D01*
X142007627Y-59274290D01*
X142035511Y-59319269D01*
X142058898Y-59366834D01*
X142078138Y-59418546D01*
X142093582Y-59475966D01*
X142105581Y-59540654D01*
X142114484Y-59614169D01*
X142120643Y-59698072D01*
X142124408Y-59793924D01*
X142126161Y-60027712D01*
X142122546Y-60328016D01*
X142120337Y-60440802D01*
X142119835Y-60466408D01*
G37*
G36*
X140620926Y-59814344D02*
G01*
X140638751Y-59815376D01*
X140656305Y-59817096D01*
X140673451Y-59819504D01*
X140690056Y-59822601D01*
X140705982Y-59826386D01*
X140721094Y-59830858D01*
X140735257Y-59836019D01*
X140747361Y-59841457D01*
X140756431Y-59846742D01*
X140759851Y-59849319D01*
X140762537Y-59851848D01*
X140764500Y-59854324D01*
X140765746Y-59856746D01*
X140766285Y-59859109D01*
X140766126Y-59861410D01*
X140765276Y-59863645D01*
X140763744Y-59865811D01*
X140761538Y-59867905D01*
X140758668Y-59869924D01*
X140750967Y-59873719D01*
X140740707Y-59877171D01*
X140727958Y-59880251D01*
X140712786Y-59882933D01*
X140695259Y-59885188D01*
X140675446Y-59886990D01*
X140653414Y-59888311D01*
X140629231Y-59889123D01*
X140602964Y-59889400D01*
X140576698Y-59889123D01*
X140564342Y-59888782D01*
X140552515Y-59888311D01*
X140541226Y-59887712D01*
X140530483Y-59886990D01*
X140520295Y-59886147D01*
X140510670Y-59885188D01*
X140501617Y-59884115D01*
X140493144Y-59882933D01*
X140485260Y-59881644D01*
X140477972Y-59880251D01*
X140471291Y-59878759D01*
X140465223Y-59877171D01*
X140459778Y-59875490D01*
X140454963Y-59873719D01*
X140450789Y-59871863D01*
X140447262Y-59869924D01*
X140444392Y-59867905D01*
X140442187Y-59865811D01*
X140441336Y-59864737D01*
X140440655Y-59863645D01*
X140440144Y-59862536D01*
X140439805Y-59861410D01*
X140439638Y-59860267D01*
X140439645Y-59859109D01*
X140439827Y-59857935D01*
X140440184Y-59856746D01*
X140440719Y-59855542D01*
X140441431Y-59854324D01*
X140443393Y-59851848D01*
X140446080Y-59849319D01*
X140449499Y-59846742D01*
X140453660Y-59844120D01*
X140458570Y-59841457D01*
X140464239Y-59838755D01*
X140470674Y-59836019D01*
X140484837Y-59830858D01*
X140499949Y-59826386D01*
X140515874Y-59822601D01*
X140532479Y-59819504D01*
X140549625Y-59817096D01*
X140567179Y-59815376D01*
X140585004Y-59814344D01*
X140602965Y-59814000D01*
X140620926Y-59814344D01*
G37*
G36*
X141467592Y-59708510D02*
G01*
X141485418Y-59709543D01*
X141502971Y-59711263D01*
X141520118Y-59713671D01*
X141536723Y-59716768D01*
X141552649Y-59720552D01*
X141567761Y-59725025D01*
X141581923Y-59730186D01*
X141594026Y-59735624D01*
X141603097Y-59740909D01*
X141606516Y-59743486D01*
X141609203Y-59746014D01*
X141611165Y-59748491D01*
X141612412Y-59750913D01*
X141612951Y-59753276D01*
X141612791Y-59755576D01*
X141611941Y-59757812D01*
X141610409Y-59759978D01*
X141608204Y-59762072D01*
X141605334Y-59764090D01*
X141597632Y-59767886D01*
X141587373Y-59771338D01*
X141574624Y-59774418D01*
X141559452Y-59777099D01*
X141541925Y-59779355D01*
X141522112Y-59781156D01*
X141500081Y-59782477D01*
X141475898Y-59783290D01*
X141449632Y-59783567D01*
X141423365Y-59783290D01*
X141411009Y-59782949D01*
X141399182Y-59782477D01*
X141387893Y-59781879D01*
X141377151Y-59781156D01*
X141366962Y-59780314D01*
X141357338Y-59779355D01*
X141348284Y-59778282D01*
X141339811Y-59777099D01*
X141331927Y-59775810D01*
X141324639Y-59774418D01*
X141317957Y-59772926D01*
X141311890Y-59771338D01*
X141306444Y-59769657D01*
X141301630Y-59767886D01*
X141297456Y-59766030D01*
X141293929Y-59764090D01*
X141291059Y-59762072D01*
X141288853Y-59759978D01*
X141288003Y-59758904D01*
X141287321Y-59757812D01*
X141286810Y-59756702D01*
X141286471Y-59755576D01*
X141286304Y-59754434D01*
X141286311Y-59753276D01*
X141286493Y-59752102D01*
X141286851Y-59750913D01*
X141287385Y-59749709D01*
X141288097Y-59748491D01*
X141290059Y-59746014D01*
X141292746Y-59743486D01*
X141296165Y-59740909D01*
X141300325Y-59738287D01*
X141305236Y-59735624D01*
X141310904Y-59732922D01*
X141317339Y-59730186D01*
X141331502Y-59725025D01*
X141346614Y-59720552D01*
X141362540Y-59716768D01*
X141379144Y-59713671D01*
X141396291Y-59711263D01*
X141413845Y-59709543D01*
X141431671Y-59708510D01*
X141449631Y-59708166D01*
X141467592Y-59708510D01*
G37*
G36*
X140620926Y-60026010D02*
G01*
X140638751Y-60027042D01*
X140656305Y-60028763D01*
X140673451Y-60031171D01*
X140690056Y-60034268D01*
X140705982Y-60038052D01*
X140721094Y-60042525D01*
X140735257Y-60047686D01*
X140747361Y-60053124D01*
X140756431Y-60058409D01*
X140759851Y-60060986D01*
X140762537Y-60063514D01*
X140764500Y-60065991D01*
X140765746Y-60068413D01*
X140766285Y-60070776D01*
X140766126Y-60073076D01*
X140765276Y-60075312D01*
X140763744Y-60077478D01*
X140761538Y-60079572D01*
X140758668Y-60081590D01*
X140750967Y-60085386D01*
X140740707Y-60088838D01*
X140727958Y-60091918D01*
X140712786Y-60094599D01*
X140695259Y-60096855D01*
X140675446Y-60098656D01*
X140653414Y-60099977D01*
X140629231Y-60100790D01*
X140602964Y-60101067D01*
X140576698Y-60100790D01*
X140564342Y-60100449D01*
X140552515Y-60099977D01*
X140541226Y-60099379D01*
X140530483Y-60098656D01*
X140520295Y-60097814D01*
X140510670Y-60096855D01*
X140501617Y-60095782D01*
X140493144Y-60094599D01*
X140485260Y-60093310D01*
X140477972Y-60091918D01*
X140471291Y-60090426D01*
X140465223Y-60088838D01*
X140459778Y-60087157D01*
X140454963Y-60085386D01*
X140450789Y-60083530D01*
X140447262Y-60081590D01*
X140444392Y-60079572D01*
X140442187Y-60077478D01*
X140441336Y-60076404D01*
X140440655Y-60075312D01*
X140440144Y-60074202D01*
X140439805Y-60073076D01*
X140439638Y-60071934D01*
X140439645Y-60070776D01*
X140439827Y-60069602D01*
X140440184Y-60068413D01*
X140440719Y-60067209D01*
X140441431Y-60065991D01*
X140443393Y-60063514D01*
X140446080Y-60060986D01*
X140449499Y-60058409D01*
X140453660Y-60055787D01*
X140458570Y-60053124D01*
X140464239Y-60050422D01*
X140470674Y-60047686D01*
X140484837Y-60042525D01*
X140499949Y-60038052D01*
X140515874Y-60034268D01*
X140532479Y-60031171D01*
X140549625Y-60028763D01*
X140567179Y-60027042D01*
X140585004Y-60026010D01*
X140602965Y-60025666D01*
X140620926Y-60026010D01*
G37*
D11*
X139147761Y-52601990D02*
X139071571Y-52563895D01*
X139071571Y-52563895D02*
X138957285Y-52563895D01*
X138957285Y-52563895D02*
X138842999Y-52601990D01*
X138842999Y-52601990D02*
X138766809Y-52678180D01*
X138766809Y-52678180D02*
X138728714Y-52754371D01*
X138728714Y-52754371D02*
X138690618Y-52906752D01*
X138690618Y-52906752D02*
X138690618Y-53021038D01*
X138690618Y-53021038D02*
X138728714Y-53173419D01*
X138728714Y-53173419D02*
X138766809Y-53249609D01*
X138766809Y-53249609D02*
X138842999Y-53325800D01*
X138842999Y-53325800D02*
X138957285Y-53363895D01*
X138957285Y-53363895D02*
X139033476Y-53363895D01*
X139033476Y-53363895D02*
X139147761Y-53325800D01*
X139147761Y-53325800D02*
X139185857Y-53287704D01*
X139185857Y-53287704D02*
X139185857Y-53021038D01*
X139185857Y-53021038D02*
X139033476Y-53021038D01*
X139795380Y-52944847D02*
X139909666Y-52982942D01*
X139909666Y-52982942D02*
X139947761Y-53021038D01*
X139947761Y-53021038D02*
X139985857Y-53097228D01*
X139985857Y-53097228D02*
X139985857Y-53211514D01*
X139985857Y-53211514D02*
X139947761Y-53287704D01*
X139947761Y-53287704D02*
X139909666Y-53325800D01*
X139909666Y-53325800D02*
X139833476Y-53363895D01*
X139833476Y-53363895D02*
X139528714Y-53363895D01*
X139528714Y-53363895D02*
X139528714Y-52563895D01*
X139528714Y-52563895D02*
X139795380Y-52563895D01*
X139795380Y-52563895D02*
X139871571Y-52601990D01*
X139871571Y-52601990D02*
X139909666Y-52640085D01*
X139909666Y-52640085D02*
X139947761Y-52716276D01*
X139947761Y-52716276D02*
X139947761Y-52792466D01*
X139947761Y-52792466D02*
X139909666Y-52868657D01*
X139909666Y-52868657D02*
X139871571Y-52906752D01*
X139871571Y-52906752D02*
X139795380Y-52944847D01*
X139795380Y-52944847D02*
X139528714Y-52944847D01*
X141319190Y-53363895D02*
X140938238Y-53363895D01*
X140938238Y-53363895D02*
X140938238Y-52563895D01*
X141585857Y-53363895D02*
X141585857Y-52830561D01*
X141585857Y-52563895D02*
X141547761Y-52601990D01*
X141547761Y-52601990D02*
X141585857Y-52640085D01*
X141585857Y-52640085D02*
X141623952Y-52601990D01*
X141623952Y-52601990D02*
X141585857Y-52563895D01*
X141585857Y-52563895D02*
X141585857Y-52640085D01*
X141966809Y-52830561D02*
X141966809Y-53363895D01*
X141966809Y-52906752D02*
X142004904Y-52868657D01*
X142004904Y-52868657D02*
X142081094Y-52830561D01*
X142081094Y-52830561D02*
X142195380Y-52830561D01*
X142195380Y-52830561D02*
X142271571Y-52868657D01*
X142271571Y-52868657D02*
X142309666Y-52944847D01*
X142309666Y-52944847D02*
X142309666Y-53363895D01*
X142690619Y-53363895D02*
X142690619Y-52563895D01*
X142766809Y-53059133D02*
X142995381Y-53363895D01*
X142995381Y-52830561D02*
X142690619Y-53135323D01*
X137731904Y-51674847D02*
X137465238Y-51674847D01*
X137465238Y-52093895D02*
X137465238Y-51293895D01*
X137465238Y-51293895D02*
X137846190Y-51293895D01*
X138265237Y-52093895D02*
X138189047Y-52055800D01*
X138189047Y-52055800D02*
X138150952Y-51979609D01*
X138150952Y-51979609D02*
X138150952Y-51293895D01*
X138570000Y-52093895D02*
X138570000Y-51560561D01*
X138570000Y-51293895D02*
X138531904Y-51331990D01*
X138531904Y-51331990D02*
X138570000Y-51370085D01*
X138570000Y-51370085D02*
X138608095Y-51331990D01*
X138608095Y-51331990D02*
X138570000Y-51293895D01*
X138570000Y-51293895D02*
X138570000Y-51370085D01*
X138950952Y-51560561D02*
X138950952Y-52360561D01*
X138950952Y-51598657D02*
X139027142Y-51560561D01*
X139027142Y-51560561D02*
X139179523Y-51560561D01*
X139179523Y-51560561D02*
X139255714Y-51598657D01*
X139255714Y-51598657D02*
X139293809Y-51636752D01*
X139293809Y-51636752D02*
X139331904Y-51712942D01*
X139331904Y-51712942D02*
X139331904Y-51941514D01*
X139331904Y-51941514D02*
X139293809Y-52017704D01*
X139293809Y-52017704D02*
X139255714Y-52055800D01*
X139255714Y-52055800D02*
X139179523Y-52093895D01*
X139179523Y-52093895D02*
X139027142Y-52093895D01*
X139027142Y-52093895D02*
X138950952Y-52055800D01*
X139674762Y-51560561D02*
X139674762Y-52360561D01*
X139674762Y-51598657D02*
X139750952Y-51560561D01*
X139750952Y-51560561D02*
X139903333Y-51560561D01*
X139903333Y-51560561D02*
X139979524Y-51598657D01*
X139979524Y-51598657D02*
X140017619Y-51636752D01*
X140017619Y-51636752D02*
X140055714Y-51712942D01*
X140055714Y-51712942D02*
X140055714Y-51941514D01*
X140055714Y-51941514D02*
X140017619Y-52017704D01*
X140017619Y-52017704D02*
X139979524Y-52055800D01*
X139979524Y-52055800D02*
X139903333Y-52093895D01*
X139903333Y-52093895D02*
X139750952Y-52093895D01*
X139750952Y-52093895D02*
X139674762Y-52055800D01*
X140703334Y-52055800D02*
X140627143Y-52093895D01*
X140627143Y-52093895D02*
X140474762Y-52093895D01*
X140474762Y-52093895D02*
X140398572Y-52055800D01*
X140398572Y-52055800D02*
X140360476Y-51979609D01*
X140360476Y-51979609D02*
X140360476Y-51674847D01*
X140360476Y-51674847D02*
X140398572Y-51598657D01*
X140398572Y-51598657D02*
X140474762Y-51560561D01*
X140474762Y-51560561D02*
X140627143Y-51560561D01*
X140627143Y-51560561D02*
X140703334Y-51598657D01*
X140703334Y-51598657D02*
X140741429Y-51674847D01*
X140741429Y-51674847D02*
X140741429Y-51751038D01*
X140741429Y-51751038D02*
X140360476Y-51827228D01*
X141084286Y-52093895D02*
X141084286Y-51560561D01*
X141084286Y-51712942D02*
X141122381Y-51636752D01*
X141122381Y-51636752D02*
X141160476Y-51598657D01*
X141160476Y-51598657D02*
X141236667Y-51560561D01*
X141236667Y-51560561D02*
X141312857Y-51560561D01*
X142112857Y-51293895D02*
X142646191Y-51293895D01*
X142646191Y-51293895D02*
X142112857Y-52093895D01*
X142112857Y-52093895D02*
X142646191Y-52093895D01*
X143255715Y-52055800D02*
X143179524Y-52093895D01*
X143179524Y-52093895D02*
X143027143Y-52093895D01*
X143027143Y-52093895D02*
X142950953Y-52055800D01*
X142950953Y-52055800D02*
X142912857Y-51979609D01*
X142912857Y-51979609D02*
X142912857Y-51674847D01*
X142912857Y-51674847D02*
X142950953Y-51598657D01*
X142950953Y-51598657D02*
X143027143Y-51560561D01*
X143027143Y-51560561D02*
X143179524Y-51560561D01*
X143179524Y-51560561D02*
X143255715Y-51598657D01*
X143255715Y-51598657D02*
X143293810Y-51674847D01*
X143293810Y-51674847D02*
X143293810Y-51751038D01*
X143293810Y-51751038D02*
X142912857Y-51827228D01*
X143636667Y-52093895D02*
X143636667Y-51560561D01*
X143636667Y-51712942D02*
X143674762Y-51636752D01*
X143674762Y-51636752D02*
X143712857Y-51598657D01*
X143712857Y-51598657D02*
X143789048Y-51560561D01*
X143789048Y-51560561D02*
X143865238Y-51560561D01*
X144246190Y-52093895D02*
X144170000Y-52055800D01*
X144170000Y-52055800D02*
X144131905Y-52017704D01*
X144131905Y-52017704D02*
X144093809Y-51941514D01*
X144093809Y-51941514D02*
X144093809Y-51712942D01*
X144093809Y-51712942D02*
X144131905Y-51636752D01*
X144131905Y-51636752D02*
X144170000Y-51598657D01*
X144170000Y-51598657D02*
X144246190Y-51560561D01*
X144246190Y-51560561D02*
X144360476Y-51560561D01*
X144360476Y-51560561D02*
X144436667Y-51598657D01*
X144436667Y-51598657D02*
X144474762Y-51636752D01*
X144474762Y-51636752D02*
X144512857Y-51712942D01*
X144512857Y-51712942D02*
X144512857Y-51941514D01*
X144512857Y-51941514D02*
X144474762Y-52017704D01*
X144474762Y-52017704D02*
X144436667Y-52055800D01*
X144436667Y-52055800D02*
X144360476Y-52093895D01*
X144360476Y-52093895D02*
X144246190Y-52093895D01*
D12*
G36*
X138270880Y-62232869D02*
G01*
X138283832Y-62233418D01*
X138296398Y-62234334D01*
X138308577Y-62235616D01*
X138320370Y-62237265D01*
X138331777Y-62239280D01*
X138342798Y-62241661D01*
X138353432Y-62244409D01*
X138363680Y-62247523D01*
X138373543Y-62251004D01*
X138383018Y-62254851D01*
X138392108Y-62259064D01*
X138400811Y-62263643D01*
X138409129Y-62268589D01*
X138417060Y-62273901D01*
X138424605Y-62279580D01*
X138431727Y-62285598D01*
X138438389Y-62291930D01*
X138444592Y-62298574D01*
X138450336Y-62305531D01*
X138455620Y-62312801D01*
X138460444Y-62320384D01*
X138464809Y-62328280D01*
X138468715Y-62336489D01*
X138472161Y-62345010D01*
X138475148Y-62353845D01*
X138477675Y-62362993D01*
X138479742Y-62372453D01*
X138481351Y-62382227D01*
X138482499Y-62392313D01*
X138483188Y-62402713D01*
X138483418Y-62413425D01*
X138483245Y-62422721D01*
X138482725Y-62431899D01*
X138481859Y-62440960D01*
X138480646Y-62449903D01*
X138479087Y-62458728D01*
X138477181Y-62467436D01*
X138474928Y-62476027D01*
X138472330Y-62484500D01*
X138469384Y-62492855D01*
X138466092Y-62501093D01*
X138462454Y-62509213D01*
X138458469Y-62517216D01*
X138454137Y-62525101D01*
X138449459Y-62532869D01*
X138444435Y-62540519D01*
X138439064Y-62548052D01*
X138433427Y-62555368D01*
X138427557Y-62562416D01*
X138421453Y-62569198D01*
X138415116Y-62575712D01*
X138408545Y-62581960D01*
X138401740Y-62587940D01*
X138394702Y-62593653D01*
X138387431Y-62599099D01*
X138379926Y-62604277D01*
X138372187Y-62609189D01*
X138364215Y-62613833D01*
X138356009Y-62618211D01*
X138347570Y-62622321D01*
X138338897Y-62626164D01*
X138329990Y-62629740D01*
X138320850Y-62633048D01*
X138333012Y-62639506D01*
X138344389Y-62646518D01*
X138354982Y-62654087D01*
X138364789Y-62662211D01*
X138373813Y-62670891D01*
X138382051Y-62680126D01*
X138389505Y-62689917D01*
X138396175Y-62700264D01*
X138402059Y-62711166D01*
X138407160Y-62722624D01*
X138411475Y-62734638D01*
X138415006Y-62747207D01*
X138417752Y-62760332D01*
X138419714Y-62774013D01*
X138420891Y-62788249D01*
X138421283Y-62803041D01*
X138421120Y-62812678D01*
X138420633Y-62822291D01*
X138419820Y-62831881D01*
X138418682Y-62841449D01*
X138417218Y-62850993D01*
X138415430Y-62860515D01*
X138413317Y-62870014D01*
X138410878Y-62879489D01*
X138408114Y-62888942D01*
X138405025Y-62898372D01*
X138401611Y-62907780D01*
X138397872Y-62917164D01*
X138393808Y-62926525D01*
X138389418Y-62935864D01*
X138384704Y-62945179D01*
X138379664Y-62954472D01*
X138374382Y-62963613D01*
X138368893Y-62972525D01*
X138363196Y-62981205D01*
X138357291Y-62989655D01*
X138351179Y-62997875D01*
X138344859Y-63005864D01*
X138338332Y-63013622D01*
X138331597Y-63021150D01*
X138324654Y-63028448D01*
X138317504Y-63035515D01*
X138310146Y-63042351D01*
X138302581Y-63048957D01*
X138294808Y-63055333D01*
X138286827Y-63061478D01*
X138278639Y-63067392D01*
X138270243Y-63073076D01*
X138258400Y-63080340D01*
X138245828Y-63087135D01*
X138232528Y-63093462D01*
X138218500Y-63099320D01*
X138203744Y-63104710D01*
X138196093Y-63107228D01*
X138188260Y-63109630D01*
X138180245Y-63111915D01*
X138172048Y-63114082D01*
X138163668Y-63116133D01*
X138155107Y-63118066D01*
X138146364Y-63119882D01*
X138137438Y-63121581D01*
X138128331Y-63123162D01*
X138119041Y-63124627D01*
X138109570Y-63125974D01*
X138099917Y-63127204D01*
X138090081Y-63128317D01*
X138080063Y-63129313D01*
X138069864Y-63130192D01*
X138059482Y-63130953D01*
X138048918Y-63131598D01*
X138038173Y-63132125D01*
X138027245Y-63132535D01*
X138016135Y-63132828D01*
X138004843Y-63133004D01*
X137993369Y-63133062D01*
X137912476Y-63133062D01*
X137905833Y-63148498D01*
X137901085Y-63158976D01*
X137896466Y-63169061D01*
X137891975Y-63178753D01*
X137887612Y-63188054D01*
X137883378Y-63196962D01*
X137879271Y-63205477D01*
X137875293Y-63213601D01*
X137871443Y-63221332D01*
X137867722Y-63228670D01*
X137864128Y-63235617D01*
X137858979Y-63245301D01*
X137854117Y-63254102D01*
X137849545Y-63262021D01*
X137845261Y-63269057D01*
X137841046Y-63275659D01*
X137836607Y-63282202D01*
X137831946Y-63288688D01*
X137827061Y-63295114D01*
X137821953Y-63301483D01*
X137816622Y-63307793D01*
X137811068Y-63314045D01*
X137805290Y-63320238D01*
X137799289Y-63326373D01*
X137793065Y-63332449D01*
X137788792Y-63336468D01*
X137777211Y-63346666D01*
X137765430Y-63356206D01*
X137753447Y-63365088D01*
X137741262Y-63373312D01*
X137728876Y-63380878D01*
X137716288Y-63387786D01*
X137703499Y-63394037D01*
X137690508Y-63399629D01*
X137677316Y-63404563D01*
X137663922Y-63408840D01*
X137650327Y-63412459D01*
X137636531Y-63415419D01*
X137622532Y-63417722D01*
X137608333Y-63419367D01*
X137593932Y-63420354D01*
X137579329Y-63420683D01*
X137567442Y-63420462D01*
X137555814Y-63419800D01*
X137544446Y-63418697D01*
X137533338Y-63417153D01*
X137522489Y-63415168D01*
X137511900Y-63412742D01*
X137501570Y-63409874D01*
X137491499Y-63406565D01*
X137481688Y-63402816D01*
X137472137Y-63398625D01*
X137462845Y-63393992D01*
X137453813Y-63388919D01*
X137445040Y-63383404D01*
X137436526Y-63377449D01*
X137428272Y-63371052D01*
X137420278Y-63364214D01*
X137412659Y-63357058D01*
X137405532Y-63349660D01*
X137398896Y-63342019D01*
X137392752Y-63334135D01*
X137387099Y-63326009D01*
X137381938Y-63317640D01*
X137377268Y-63309028D01*
X137373090Y-63300173D01*
X137369404Y-63291076D01*
X137366209Y-63281736D01*
X137363505Y-63272153D01*
X137361293Y-63262328D01*
X137359573Y-63252260D01*
X137358344Y-63241949D01*
X137357607Y-63231395D01*
X137357361Y-63220599D01*
X137357598Y-63210190D01*
X137357635Y-63209657D01*
X137508010Y-63209657D01*
X137508578Y-63219014D01*
X137510281Y-63227914D01*
X137513119Y-63236356D01*
X137517093Y-63244339D01*
X137522202Y-63251865D01*
X137528446Y-63258933D01*
X137531262Y-63261632D01*
X137537282Y-63266669D01*
X137545255Y-63272022D01*
X137553723Y-63276324D01*
X137562688Y-63279578D01*
X137572148Y-63281782D01*
X137580074Y-63282789D01*
X137588317Y-63283125D01*
X137597651Y-63282776D01*
X137606896Y-63281731D01*
X137616052Y-63279988D01*
X137625118Y-63277547D01*
X137634095Y-63274410D01*
X137642983Y-63270575D01*
X137651782Y-63266043D01*
X137660491Y-63260814D01*
X137669111Y-63254887D01*
X137677641Y-63248263D01*
X137683279Y-63243460D01*
X137691611Y-63235750D01*
X137699683Y-63227493D01*
X137704919Y-63221686D01*
X137710039Y-63215635D01*
X137715042Y-63209342D01*
X137719930Y-63202807D01*
X137724702Y-63196028D01*
X137729358Y-63189007D01*
X137733898Y-63181743D01*
X137738322Y-63174236D01*
X137742630Y-63166487D01*
X137746821Y-63158495D01*
X137750897Y-63150260D01*
X137754857Y-63141783D01*
X137758701Y-63133062D01*
X137615672Y-63133062D01*
X137602635Y-63133362D01*
X137590439Y-63134259D01*
X137579084Y-63135755D01*
X137568570Y-63137849D01*
X137558897Y-63140542D01*
X137550066Y-63143833D01*
X137542075Y-63147723D01*
X137534926Y-63152211D01*
X137528617Y-63157297D01*
X137523150Y-63162982D01*
X137516526Y-63172631D01*
X137513162Y-63179812D01*
X137510638Y-63187591D01*
X137508956Y-63195969D01*
X137508115Y-63204945D01*
X137508010Y-63209657D01*
X137357635Y-63209657D01*
X137358309Y-63199918D01*
X137359494Y-63189783D01*
X137361153Y-63179786D01*
X137363286Y-63169926D01*
X137365893Y-63160204D01*
X137368974Y-63150619D01*
X137372528Y-63141171D01*
X137376557Y-63131861D01*
X137381060Y-63122688D01*
X137384325Y-63116649D01*
X137389550Y-63107860D01*
X137395110Y-63099446D01*
X137401008Y-63091406D01*
X137407241Y-63083741D01*
X137413812Y-63076449D01*
X137420719Y-63069532D01*
X137427963Y-63062990D01*
X137435543Y-63056822D01*
X137443460Y-63051028D01*
X137451714Y-63045609D01*
X137457403Y-63042204D01*
X137465068Y-63038063D01*
X137473068Y-63034190D01*
X137481402Y-63030583D01*
X137490070Y-63027244D01*
X137499073Y-63024172D01*
X137508410Y-63021367D01*
X137518081Y-63018829D01*
X137528087Y-63016558D01*
X137538427Y-63014555D01*
X137549101Y-63012818D01*
X137560109Y-63011349D01*
X137571452Y-63010147D01*
X137583129Y-63009212D01*
X137595141Y-63008544D01*
X137607486Y-63008144D01*
X137620166Y-63008010D01*
X137811848Y-63008010D01*
X137966405Y-63008010D01*
X138010955Y-63008010D01*
X138025437Y-63007844D01*
X138039476Y-63007347D01*
X138053073Y-63006519D01*
X138066227Y-63005360D01*
X138078938Y-63003869D01*
X138091207Y-63002047D01*
X138103033Y-62999894D01*
X138114416Y-62997410D01*
X138125357Y-62994594D01*
X138135855Y-62991447D01*
X138145910Y-62987969D01*
X138155522Y-62984160D01*
X138164692Y-62980019D01*
X138173419Y-62975547D01*
X138181704Y-62970744D01*
X138189545Y-62965609D01*
X138196744Y-62960378D01*
X138203685Y-62954797D01*
X138210368Y-62948865D01*
X138216794Y-62942583D01*
X138222962Y-62935951D01*
X138228872Y-62928968D01*
X138234525Y-62921635D01*
X138239920Y-62913952D01*
X138245058Y-62905918D01*
X138249938Y-62897534D01*
X138253048Y-62891750D01*
X138257413Y-62882952D01*
X138261349Y-62874144D01*
X138264855Y-62865326D01*
X138267932Y-62856497D01*
X138270579Y-62847658D01*
X138272798Y-62838808D01*
X138274587Y-62829949D01*
X138275946Y-62821079D01*
X138276876Y-62812198D01*
X138277377Y-62803308D01*
X138277473Y-62797375D01*
X138277189Y-62787117D01*
X138276339Y-62777447D01*
X138274922Y-62768364D01*
X138272939Y-62759868D01*
X138270389Y-62751960D01*
X138267272Y-62744639D01*
X138262234Y-62735791D01*
X138256189Y-62727988D01*
X138249137Y-62721228D01*
X138245233Y-62718240D01*
X138236476Y-62712882D01*
X138228932Y-62709332D01*
X138220549Y-62706185D01*
X138211328Y-62703439D01*
X138201269Y-62701094D01*
X138190372Y-62699152D01*
X138178637Y-62697612D01*
X138170348Y-62696808D01*
X138161686Y-62696183D01*
X138152652Y-62695736D01*
X138143246Y-62695468D01*
X138133467Y-62695379D01*
X138087745Y-62695379D01*
X137966405Y-63008010D01*
X137811848Y-63008010D01*
X137988372Y-62565637D01*
X138141087Y-62565637D01*
X138174109Y-62565051D01*
X138183563Y-62564911D01*
X138192726Y-62564489D01*
X138201600Y-62563787D01*
X138210184Y-62562804D01*
X138218477Y-62561540D01*
X138226481Y-62559995D01*
X138234194Y-62558170D01*
X138245221Y-62554904D01*
X138255595Y-62551007D01*
X138265316Y-62546478D01*
X138274385Y-62541317D01*
X138282801Y-62535524D01*
X138290564Y-62529099D01*
X138296926Y-62522909D01*
X138302944Y-62516184D01*
X138308619Y-62508926D01*
X138313950Y-62501133D01*
X138318938Y-62492806D01*
X138322681Y-62485759D01*
X138325344Y-62480250D01*
X138328642Y-62472843D01*
X138332145Y-62463774D01*
X138334961Y-62454914D01*
X138337091Y-62446265D01*
X138338533Y-62437825D01*
X138339289Y-62429595D01*
X138339413Y-62424758D01*
X138339061Y-62416420D01*
X138338004Y-62408624D01*
X138335501Y-62399074D01*
X138331746Y-62390489D01*
X138326739Y-62382869D01*
X138320480Y-62376213D01*
X138312970Y-62370522D01*
X138304207Y-62365796D01*
X138299357Y-62363795D01*
X138290796Y-62361435D01*
X138282678Y-62360104D01*
X138272890Y-62359069D01*
X138263858Y-62358454D01*
X138253757Y-62358028D01*
X138245480Y-62357832D01*
X138236602Y-62357744D01*
X138233509Y-62357738D01*
X138225107Y-62357738D01*
X138141087Y-62565637D01*
X137988372Y-62565637D01*
X138071332Y-62357738D01*
X138009196Y-62357738D01*
X137994346Y-62357738D01*
X137983347Y-62357296D01*
X137973429Y-62355972D01*
X137964594Y-62353766D01*
X137956840Y-62350676D01*
X137948184Y-62345184D01*
X137941453Y-62338122D01*
X137936644Y-62329491D01*
X137934300Y-62321988D01*
X137933038Y-62313602D01*
X137932797Y-62307521D01*
X137933413Y-62297929D01*
X137935259Y-62288814D01*
X137938336Y-62280176D01*
X137942643Y-62272015D01*
X137948182Y-62264331D01*
X137953498Y-62258527D01*
X137958003Y-62254374D01*
X137964524Y-62249291D01*
X137971388Y-62244885D01*
X137978593Y-62241158D01*
X137986140Y-62238108D01*
X137994029Y-62235735D01*
X138002260Y-62234041D01*
X138010833Y-62233024D01*
X138019748Y-62232685D01*
X138034402Y-62232685D01*
X138257542Y-62232685D01*
X138270880Y-62232869D01*
G37*
G36*
X138741814Y-62558018D02*
G01*
X138751447Y-62558606D01*
X138760859Y-62559587D01*
X138770049Y-62560960D01*
X138779018Y-62562725D01*
X138787766Y-62564883D01*
X138796293Y-62567433D01*
X138804598Y-62570376D01*
X138812681Y-62573710D01*
X138820544Y-62577437D01*
X138828185Y-62581557D01*
X138835604Y-62586068D01*
X138842802Y-62590972D01*
X138849779Y-62596268D01*
X138856535Y-62601957D01*
X138863069Y-62608038D01*
X138869292Y-62614422D01*
X138875114Y-62621019D01*
X138880533Y-62627831D01*
X138885552Y-62634856D01*
X138890169Y-62642094D01*
X138894384Y-62649547D01*
X138898198Y-62657213D01*
X138901611Y-62665093D01*
X138904622Y-62673187D01*
X138907231Y-62681494D01*
X138909440Y-62690015D01*
X138911246Y-62698750D01*
X138912651Y-62707698D01*
X138913655Y-62716860D01*
X138914257Y-62726236D01*
X138914458Y-62735826D01*
X138914221Y-62746773D01*
X138913510Y-62757707D01*
X138912325Y-62768627D01*
X138910666Y-62779533D01*
X138908533Y-62790425D01*
X138905926Y-62801304D01*
X138902845Y-62812169D01*
X138899291Y-62823020D01*
X138895262Y-62833858D01*
X138890759Y-62844682D01*
X138887494Y-62851890D01*
X138884061Y-62858981D01*
X138878681Y-62869279D01*
X138873022Y-62879172D01*
X138867085Y-62888660D01*
X138860870Y-62897742D01*
X138854377Y-62906419D01*
X138847606Y-62914691D01*
X138840556Y-62922557D01*
X138833228Y-62930019D01*
X138825622Y-62937075D01*
X138817738Y-62943725D01*
X138810575Y-62949080D01*
X138803352Y-62954008D01*
X138796067Y-62958508D01*
X138788722Y-62962581D01*
X138781315Y-62966226D01*
X138773847Y-62969444D01*
X138766319Y-62972234D01*
X138758729Y-62974598D01*
X138750724Y-62976567D01*
X138741949Y-62978273D01*
X138732405Y-62979717D01*
X138722092Y-62980899D01*
X138713853Y-62981613D01*
X138705180Y-62982179D01*
X138696075Y-62982597D01*
X138686537Y-62982868D01*
X138676566Y-62982991D01*
X138673146Y-62983000D01*
X138662187Y-62982916D01*
X138651683Y-62982667D01*
X138641634Y-62982251D01*
X138632040Y-62981668D01*
X138622901Y-62980920D01*
X138614216Y-62980004D01*
X138605987Y-62978923D01*
X138598212Y-62977675D01*
X138587403Y-62975491D01*
X138577618Y-62972933D01*
X138568856Y-62970000D01*
X138561118Y-62966693D01*
X138552392Y-62961702D01*
X138543472Y-62955237D01*
X138535127Y-62948396D01*
X138527358Y-62941181D01*
X138520165Y-62933589D01*
X138513546Y-62925622D01*
X138507504Y-62917280D01*
X138502036Y-62908562D01*
X138497145Y-62899468D01*
X138492828Y-62889999D01*
X138489088Y-62880155D01*
X138485922Y-62869935D01*
X138483333Y-62859339D01*
X138481318Y-62848368D01*
X138479880Y-62837022D01*
X138479017Y-62825300D01*
X138478729Y-62813202D01*
X138479023Y-62800365D01*
X138479054Y-62799915D01*
X138611206Y-62799915D01*
X138611835Y-62810286D01*
X138613720Y-62819637D01*
X138616863Y-62827968D01*
X138621263Y-62835278D01*
X138626920Y-62841569D01*
X138633834Y-62846839D01*
X138642005Y-62851090D01*
X138651433Y-62854320D01*
X138662118Y-62856530D01*
X138669940Y-62857437D01*
X138678321Y-62857890D01*
X138682720Y-62857947D01*
X138692829Y-62857581D01*
X138702345Y-62856482D01*
X138711269Y-62854650D01*
X138719601Y-62852085D01*
X138727341Y-62848788D01*
X138734488Y-62844758D01*
X138741043Y-62839995D01*
X138747005Y-62834500D01*
X138753675Y-62827185D01*
X138759688Y-62819674D01*
X138765046Y-62811967D01*
X138769747Y-62804064D01*
X138773793Y-62795966D01*
X138777182Y-62787672D01*
X138779915Y-62779182D01*
X138781993Y-62770496D01*
X138783414Y-62761615D01*
X138784180Y-62752537D01*
X138784325Y-62746377D01*
X138783882Y-62737734D01*
X138782551Y-62729635D01*
X138780333Y-62722080D01*
X138776500Y-62713731D01*
X138771389Y-62706166D01*
X138766154Y-62700459D01*
X138758955Y-62694483D01*
X138750986Y-62689743D01*
X138743758Y-62686738D01*
X138735996Y-62684591D01*
X138727699Y-62683303D01*
X138718868Y-62682874D01*
X138708818Y-62683445D01*
X138698987Y-62685158D01*
X138689376Y-62688012D01*
X138679985Y-62692009D01*
X138673086Y-62695755D01*
X138666310Y-62700144D01*
X138659659Y-62705175D01*
X138653130Y-62710849D01*
X138646726Y-62717165D01*
X138644619Y-62719413D01*
X138638647Y-62726329D01*
X138633264Y-62733376D01*
X138628467Y-62740553D01*
X138624258Y-62747861D01*
X138620636Y-62755299D01*
X138617601Y-62762868D01*
X138615154Y-62770567D01*
X138613294Y-62778397D01*
X138612022Y-62786358D01*
X138611337Y-62794449D01*
X138611206Y-62799915D01*
X138479054Y-62799915D01*
X138479904Y-62787746D01*
X138481373Y-62775343D01*
X138483430Y-62763157D01*
X138486075Y-62751187D01*
X138489308Y-62739434D01*
X138493128Y-62727899D01*
X138497535Y-62716579D01*
X138502531Y-62705477D01*
X138508114Y-62694591D01*
X138514285Y-62683923D01*
X138521044Y-62673471D01*
X138528390Y-62663235D01*
X138536324Y-62653217D01*
X138544846Y-62643415D01*
X138553956Y-62633830D01*
X138563489Y-62624626D01*
X138573235Y-62616015D01*
X138583194Y-62607999D01*
X138593364Y-62600576D01*
X138603747Y-62593747D01*
X138614342Y-62587512D01*
X138625149Y-62581871D01*
X138636168Y-62576824D01*
X138647399Y-62572370D01*
X138658843Y-62568510D01*
X138670498Y-62565244D01*
X138682366Y-62562572D01*
X138694446Y-62560494D01*
X138706739Y-62559009D01*
X138719243Y-62558118D01*
X138731960Y-62557822D01*
X138741814Y-62558018D01*
G37*
G36*
X139078589Y-62682874D02*
G01*
X139059831Y-62725665D01*
X139054970Y-62735897D01*
X139049836Y-62745121D01*
X139044432Y-62753340D01*
X139038756Y-62760552D01*
X139032809Y-62766758D01*
X139026591Y-62771958D01*
X139017877Y-62777325D01*
X139008682Y-62780903D01*
X138999003Y-62782692D01*
X138993983Y-62782916D01*
X138984966Y-62782401D01*
X138976526Y-62780855D01*
X138968663Y-62778279D01*
X138961377Y-62774673D01*
X138954668Y-62770036D01*
X138952560Y-62768261D01*
X138946982Y-62762512D01*
X138941933Y-62755161D01*
X138938455Y-62747119D01*
X138936547Y-62738385D01*
X138936147Y-62731722D01*
X138937105Y-62723313D01*
X138939175Y-62714870D01*
X138941873Y-62706308D01*
X138944771Y-62698240D01*
X138948261Y-62689322D01*
X139010397Y-62537696D01*
X139014775Y-62527884D01*
X139019482Y-62519037D01*
X139024520Y-62511155D01*
X139029887Y-62504238D01*
X139035584Y-62498286D01*
X139041611Y-62493299D01*
X139050159Y-62488152D01*
X139059294Y-62484720D01*
X139069015Y-62483005D01*
X139074095Y-62482790D01*
X139083767Y-62483389D01*
X139092462Y-62485184D01*
X139100180Y-62488176D01*
X139106921Y-62492364D01*
X139112685Y-62497750D01*
X139117473Y-62504332D01*
X139121283Y-62512112D01*
X139124116Y-62521087D01*
X139128415Y-62538087D01*
X139131091Y-62545933D01*
X139135632Y-62552579D01*
X139138380Y-62554500D01*
X139146055Y-62556524D01*
X139154164Y-62557354D01*
X139163223Y-62557740D01*
X139170815Y-62557822D01*
X139299385Y-62557822D01*
X139308116Y-62558027D01*
X139316283Y-62558643D01*
X139327479Y-62560337D01*
X139337406Y-62562954D01*
X139346067Y-62566496D01*
X139353460Y-62570962D01*
X139359586Y-62576351D01*
X139364444Y-62582665D01*
X139368035Y-62589902D01*
X139370359Y-62598064D01*
X139371415Y-62607149D01*
X139371485Y-62610383D01*
X139371129Y-62619161D01*
X139370059Y-62627373D01*
X139368277Y-62635018D01*
X139364267Y-62645425D01*
X139358653Y-62654557D01*
X139351435Y-62662415D01*
X139342613Y-62668999D01*
X139332187Y-62674308D01*
X139324346Y-62677140D01*
X139315791Y-62679405D01*
X139306524Y-62681104D01*
X139296543Y-62682237D01*
X139285850Y-62682803D01*
X139280236Y-62682874D01*
X139274179Y-62688150D01*
X139263602Y-62698165D01*
X139253708Y-62707890D01*
X139244496Y-62717326D01*
X139235967Y-62726471D01*
X139228120Y-62735327D01*
X139220955Y-62743892D01*
X139214473Y-62752167D01*
X139208673Y-62760152D01*
X139203555Y-62767848D01*
X139199120Y-62775253D01*
X139195367Y-62782368D01*
X139191017Y-62792497D01*
X139188202Y-62801973D01*
X139186923Y-62810796D01*
X139186838Y-62813593D01*
X139187281Y-62821519D01*
X139189250Y-62830875D01*
X139192794Y-62838845D01*
X139197914Y-62845429D01*
X139204610Y-62850627D01*
X139212880Y-62854439D01*
X139222726Y-62856864D01*
X139231145Y-62857774D01*
X139237249Y-62857947D01*
X139306614Y-62857947D01*
X139315061Y-62858144D01*
X139322963Y-62858735D01*
X139333795Y-62860359D01*
X139343400Y-62862870D01*
X139351778Y-62866267D01*
X139358931Y-62870550D01*
X139364858Y-62875719D01*
X139370852Y-62883990D01*
X139373918Y-62891227D01*
X139375757Y-62899350D01*
X139376370Y-62908359D01*
X139375988Y-62916999D01*
X139374844Y-62925138D01*
X139372935Y-62932777D01*
X139369477Y-62941621D01*
X139364826Y-62949683D01*
X139358982Y-62956963D01*
X139351946Y-62963460D01*
X139345534Y-62968040D01*
X139338512Y-62972009D01*
X139330880Y-62975367D01*
X139322637Y-62978115D01*
X139313783Y-62980252D01*
X139304318Y-62981778D01*
X139294243Y-62982694D01*
X139286286Y-62982980D01*
X139283558Y-62983000D01*
X139175700Y-62983000D01*
X139165580Y-62982666D01*
X139155811Y-62981667D01*
X139146392Y-62980001D01*
X139137323Y-62977669D01*
X139128605Y-62974670D01*
X139120237Y-62971006D01*
X139112220Y-62966675D01*
X139104552Y-62961677D01*
X139097235Y-62956013D01*
X139090269Y-62949683D01*
X139085819Y-62945093D01*
X139079603Y-62937786D01*
X139073999Y-62930081D01*
X139069006Y-62921978D01*
X139064625Y-62913476D01*
X139060854Y-62904575D01*
X139057696Y-62895277D01*
X139055148Y-62885579D01*
X139053212Y-62875484D01*
X139051888Y-62864990D01*
X139051174Y-62854097D01*
X139051039Y-62846614D01*
X139051329Y-62837028D01*
X139052199Y-62827515D01*
X139053649Y-62818075D01*
X139055679Y-62808708D01*
X139058290Y-62799414D01*
X139061480Y-62790194D01*
X139065250Y-62781047D01*
X139069601Y-62771974D01*
X139073369Y-62765015D01*
X139077638Y-62757768D01*
X139082409Y-62750232D01*
X139087681Y-62742408D01*
X139093455Y-62734295D01*
X139099730Y-62725894D01*
X139106507Y-62717205D01*
X139113785Y-62708226D01*
X139118915Y-62702081D01*
X139124269Y-62695807D01*
X139129845Y-62689404D01*
X139135644Y-62682874D01*
X139078589Y-62682874D01*
G37*
G36*
X139650030Y-62557967D02*
G01*
X139658709Y-62558402D01*
X139667164Y-62559127D01*
X139675397Y-62560142D01*
X139683406Y-62561447D01*
X139691193Y-62563042D01*
X139702455Y-62565979D01*
X139713216Y-62569568D01*
X139723475Y-62573810D01*
X139733233Y-62578704D01*
X139742490Y-62584251D01*
X139751245Y-62590451D01*
X139756803Y-62594946D01*
X139764625Y-62602079D01*
X139771677Y-62609626D01*
X139777960Y-62617589D01*
X139783474Y-62625968D01*
X139788218Y-62634763D01*
X139792194Y-62643973D01*
X139795399Y-62653599D01*
X139797836Y-62663640D01*
X139799502Y-62674097D01*
X139800400Y-62684969D01*
X139800571Y-62692448D01*
X139800335Y-62701411D01*
X139799628Y-62710079D01*
X139798448Y-62718453D01*
X139796797Y-62726532D01*
X139794675Y-62734317D01*
X139792081Y-62741807D01*
X139789015Y-62749002D01*
X139783531Y-62759242D01*
X139776986Y-62768820D01*
X139769380Y-62777735D01*
X139763720Y-62783309D01*
X139757588Y-62788590D01*
X139750984Y-62793575D01*
X139743909Y-62798266D01*
X139740194Y-62800501D01*
X139731279Y-62805172D01*
X139723920Y-62808267D01*
X139715984Y-62811011D01*
X139707470Y-62813405D01*
X139698380Y-62815449D01*
X139688712Y-62817142D01*
X139678468Y-62818485D01*
X139667646Y-62819478D01*
X139656248Y-62820120D01*
X139648328Y-62820354D01*
X139640152Y-62820431D01*
X139530145Y-62820431D01*
X139531116Y-62829224D01*
X139534029Y-62836845D01*
X139538883Y-62843293D01*
X139545679Y-62848568D01*
X139554417Y-62852672D01*
X139562245Y-62854980D01*
X139571164Y-62856628D01*
X139581176Y-62857617D01*
X139592281Y-62857947D01*
X139755630Y-62857947D01*
X139764006Y-62858146D01*
X139771842Y-62858744D01*
X139782582Y-62860387D01*
X139792107Y-62862927D01*
X139800415Y-62866364D01*
X139807508Y-62870697D01*
X139813384Y-62875926D01*
X139819329Y-62884293D01*
X139822368Y-62891614D01*
X139824192Y-62899831D01*
X139824800Y-62908945D01*
X139824418Y-62917448D01*
X139823273Y-62925468D01*
X139820769Y-62934815D01*
X139817072Y-62943408D01*
X139812182Y-62951248D01*
X139806100Y-62958334D01*
X139800376Y-62963460D01*
X139793964Y-62968040D01*
X139786942Y-62972009D01*
X139779310Y-62975367D01*
X139771067Y-62978115D01*
X139762213Y-62980252D01*
X139752748Y-62981778D01*
X139742673Y-62982694D01*
X139734716Y-62982980D01*
X139731988Y-62983000D01*
X139576454Y-62983000D01*
X139565748Y-62982833D01*
X139555366Y-62982334D01*
X139545311Y-62981502D01*
X139535580Y-62980337D01*
X139526174Y-62978840D01*
X139517094Y-62977009D01*
X139508338Y-62974846D01*
X139499908Y-62972351D01*
X139491803Y-62969522D01*
X139484023Y-62966360D01*
X139476568Y-62962866D01*
X139469439Y-62959039D01*
X139462634Y-62954880D01*
X139456155Y-62950387D01*
X139450001Y-62945562D01*
X139444172Y-62940404D01*
X139436071Y-62932072D01*
X139428766Y-62923049D01*
X139422259Y-62913337D01*
X139418363Y-62906478D01*
X139414822Y-62899313D01*
X139411634Y-62891840D01*
X139408801Y-62884061D01*
X139406322Y-62875975D01*
X139404197Y-62867582D01*
X139402426Y-62858883D01*
X139401010Y-62849876D01*
X139399947Y-62840563D01*
X139399239Y-62830943D01*
X139398885Y-62821016D01*
X139398840Y-62815937D01*
X139399121Y-62802886D01*
X139399961Y-62790060D01*
X139401361Y-62777460D01*
X139403322Y-62765086D01*
X139405843Y-62752938D01*
X139408925Y-62741016D01*
X139412566Y-62729320D01*
X139415837Y-62720390D01*
X139556524Y-62720390D01*
X139617096Y-62720390D01*
X139627591Y-62720184D01*
X139637021Y-62719565D01*
X139645387Y-62718535D01*
X139654885Y-62716520D01*
X139662490Y-62713772D01*
X139669335Y-62709307D01*
X139673644Y-62702438D01*
X139674151Y-62696942D01*
X139672342Y-62687911D01*
X139668088Y-62680749D01*
X139661388Y-62675455D01*
X139653936Y-62672471D01*
X139644787Y-62670784D01*
X139636244Y-62670369D01*
X139626945Y-62670808D01*
X139618022Y-62672127D01*
X139609478Y-62674325D01*
X139601312Y-62677403D01*
X139593523Y-62681360D01*
X139586112Y-62686196D01*
X139579079Y-62691911D01*
X139572424Y-62698505D01*
X139566146Y-62705979D01*
X139560247Y-62714332D01*
X139556524Y-62720390D01*
X139415837Y-62720390D01*
X139416768Y-62717849D01*
X139421530Y-62706605D01*
X139426852Y-62695587D01*
X139432734Y-62684794D01*
X139439177Y-62674228D01*
X139446180Y-62663887D01*
X139453743Y-62653772D01*
X139461867Y-62643884D01*
X139470550Y-62634221D01*
X139479620Y-62624969D01*
X139488902Y-62616315D01*
X139498396Y-62608257D01*
X139508102Y-62600796D01*
X139518021Y-62593932D01*
X139528152Y-62587665D01*
X139538495Y-62581995D01*
X139549050Y-62576921D01*
X139559817Y-62572445D01*
X139570797Y-62568565D01*
X139581988Y-62565282D01*
X139593392Y-62562596D01*
X139605008Y-62560507D01*
X139616836Y-62559015D01*
X139628877Y-62558120D01*
X139641129Y-62557822D01*
X139650030Y-62557967D01*
G37*
G36*
X140403377Y-62233208D02*
G01*
X140411480Y-62234774D01*
X140419076Y-62237384D01*
X140426162Y-62241039D01*
X140432741Y-62245737D01*
X140434821Y-62247535D01*
X140440465Y-62253338D01*
X140445574Y-62260697D01*
X140449094Y-62268693D01*
X140451024Y-62277324D01*
X140451429Y-62283879D01*
X140450916Y-62292464D01*
X140449626Y-62300437D01*
X140447551Y-62308840D01*
X140445146Y-62316384D01*
X140443223Y-62321590D01*
X140436579Y-62336049D01*
X140220669Y-62857947D01*
X140283195Y-62857947D01*
X140291642Y-62858146D01*
X140299544Y-62858744D01*
X140310375Y-62860387D01*
X140319980Y-62862927D01*
X140328359Y-62866364D01*
X140335512Y-62870697D01*
X140341438Y-62875926D01*
X140347433Y-62884293D01*
X140350498Y-62891614D01*
X140352338Y-62899831D01*
X140352951Y-62908945D01*
X140352563Y-62917448D01*
X140351400Y-62925468D01*
X140348855Y-62934815D01*
X140345099Y-62943408D01*
X140340131Y-62951248D01*
X140333952Y-62958334D01*
X140328136Y-62963460D01*
X140321688Y-62968040D01*
X140314653Y-62972009D01*
X140307033Y-62975367D01*
X140298826Y-62978115D01*
X140290034Y-62980252D01*
X140280655Y-62981778D01*
X140270690Y-62982694D01*
X140262831Y-62982980D01*
X140260138Y-62983000D01*
X140185889Y-62983000D01*
X140178068Y-62982670D01*
X140168271Y-62981204D01*
X140159194Y-62978566D01*
X140150838Y-62974756D01*
X140143202Y-62969774D01*
X140136287Y-62963619D01*
X140130092Y-62956292D01*
X140124618Y-62947792D01*
X140123362Y-62945484D01*
X140116723Y-62952188D01*
X140109995Y-62958233D01*
X140103177Y-62963619D01*
X140096270Y-62968345D01*
X140089273Y-62972412D01*
X140082188Y-62975819D01*
X140072601Y-62979336D01*
X140062856Y-62981681D01*
X140052952Y-62982853D01*
X140047940Y-62983000D01*
X139978184Y-62983000D01*
X139966969Y-62982635D01*
X139956182Y-62981543D01*
X139945825Y-62979723D01*
X139935897Y-62977174D01*
X139926398Y-62973898D01*
X139917329Y-62969893D01*
X139908689Y-62965160D01*
X139900479Y-62959699D01*
X139892697Y-62953509D01*
X139885345Y-62946592D01*
X139880683Y-62941576D01*
X139874153Y-62933534D01*
X139868265Y-62925014D01*
X139863020Y-62916017D01*
X139858417Y-62906542D01*
X139854456Y-62896590D01*
X139851138Y-62886161D01*
X139848462Y-62875254D01*
X139846428Y-62863870D01*
X139845429Y-62856015D01*
X139844715Y-62847948D01*
X139844287Y-62839669D01*
X139844144Y-62831178D01*
X139844426Y-62818097D01*
X139844824Y-62812030D01*
X139973300Y-62812030D01*
X139973705Y-62820235D01*
X139975506Y-62829921D01*
X139978748Y-62838172D01*
X139983432Y-62844988D01*
X139989556Y-62850369D01*
X139997122Y-62854315D01*
X140006128Y-62856826D01*
X140016576Y-62857902D01*
X140019413Y-62857947D01*
X140040320Y-62857947D01*
X140049393Y-62857504D01*
X140057661Y-62856176D01*
X140066862Y-62853271D01*
X140074804Y-62848983D01*
X140081486Y-62843311D01*
X140086909Y-62836255D01*
X140090341Y-62829615D01*
X140131569Y-62734263D01*
X140134538Y-62726971D01*
X140137284Y-62718778D01*
X140139003Y-62710569D01*
X140139189Y-62707494D01*
X140138077Y-62699182D01*
X140134738Y-62691612D01*
X140129174Y-62684784D01*
X140125121Y-62681311D01*
X140117745Y-62676524D01*
X140109489Y-62673104D01*
X140101545Y-62671234D01*
X140092927Y-62670411D01*
X140090341Y-62670369D01*
X140082367Y-62670764D01*
X140074493Y-62671949D01*
X140066719Y-62673924D01*
X140059044Y-62676688D01*
X140051469Y-62680243D01*
X140043993Y-62684588D01*
X140036617Y-62689723D01*
X140029341Y-62695648D01*
X140022164Y-62702363D01*
X140015087Y-62709867D01*
X140010425Y-62715309D01*
X140003790Y-62723763D01*
X139997808Y-62732343D01*
X139992478Y-62741050D01*
X139987802Y-62749885D01*
X139983777Y-62758847D01*
X139980406Y-62767935D01*
X139977686Y-62777151D01*
X139975620Y-62786494D01*
X139974206Y-62795964D01*
X139973445Y-62805561D01*
X139973300Y-62812030D01*
X139844824Y-62812030D01*
X139845274Y-62805182D01*
X139846686Y-62792433D01*
X139848662Y-62779851D01*
X139851204Y-62767435D01*
X139854311Y-62755185D01*
X139857982Y-62743102D01*
X139862218Y-62731185D01*
X139867019Y-62719435D01*
X139872385Y-62707851D01*
X139878315Y-62696433D01*
X139884810Y-62685182D01*
X139891871Y-62674097D01*
X139899496Y-62663179D01*
X139907685Y-62652427D01*
X139916440Y-62641841D01*
X139925546Y-62631667D01*
X139934792Y-62622149D01*
X139944176Y-62613288D01*
X139953699Y-62605083D01*
X139963361Y-62597534D01*
X139973162Y-62590642D01*
X139983102Y-62584406D01*
X139993181Y-62578826D01*
X140003399Y-62573903D01*
X140013755Y-62569637D01*
X140024251Y-62566027D01*
X140034885Y-62563073D01*
X140045659Y-62560775D01*
X140056571Y-62559134D01*
X140067622Y-62558150D01*
X140078813Y-62557822D01*
X140087012Y-62557979D01*
X140095003Y-62558450D01*
X140102784Y-62559237D01*
X140114064Y-62561005D01*
X140124874Y-62563482D01*
X140135213Y-62566666D01*
X140145081Y-62570557D01*
X140154479Y-62575156D01*
X140163406Y-62580463D01*
X140171863Y-62586477D01*
X140179849Y-62593199D01*
X140184912Y-62598073D01*
X140307424Y-62307131D01*
X140311429Y-62298116D01*
X140315627Y-62289683D01*
X140320020Y-62281831D01*
X140324606Y-62274561D01*
X140329387Y-62267872D01*
X140334361Y-62261766D01*
X140342185Y-62253696D01*
X140350446Y-62246935D01*
X140359144Y-62241482D01*
X140368277Y-62237338D01*
X140377846Y-62234503D01*
X140387852Y-62232976D01*
X140394765Y-62232685D01*
X140403377Y-62233208D01*
G37*
G36*
X141624186Y-62857947D02*
G01*
X141713090Y-62857947D01*
X141722342Y-62858141D01*
X141730996Y-62858723D01*
X141739054Y-62859692D01*
X141750021Y-62861873D01*
X141759646Y-62864926D01*
X141767928Y-62868852D01*
X141774866Y-62873650D01*
X141780462Y-62879321D01*
X141785834Y-62888239D01*
X141788296Y-62895945D01*
X141789415Y-62904524D01*
X141789489Y-62907577D01*
X141789071Y-62916224D01*
X141787816Y-62924381D01*
X141785725Y-62932050D01*
X141781934Y-62940950D01*
X141776837Y-62949086D01*
X141770432Y-62956459D01*
X141764367Y-62961808D01*
X141762720Y-62963069D01*
X141755738Y-62967740D01*
X141748078Y-62971789D01*
X141739740Y-62975214D01*
X141730725Y-62978017D01*
X141721031Y-62980197D01*
X141710660Y-62981754D01*
X141702437Y-62982513D01*
X141693832Y-62982922D01*
X141687884Y-62983000D01*
X141583544Y-62983000D01*
X141573039Y-62982788D01*
X141562995Y-62982155D01*
X141553412Y-62981098D01*
X141544288Y-62979620D01*
X141535625Y-62977719D01*
X141527421Y-62975395D01*
X141519679Y-62972649D01*
X141512396Y-62969481D01*
X141503402Y-62964599D01*
X141495226Y-62958966D01*
X141487944Y-62952631D01*
X141481634Y-62945643D01*
X141476294Y-62938001D01*
X141471925Y-62929706D01*
X141468527Y-62920757D01*
X141466100Y-62911155D01*
X141464643Y-62900900D01*
X141464188Y-62892780D01*
X141464158Y-62889992D01*
X141464721Y-62880367D01*
X141465982Y-62871733D01*
X141467963Y-62862269D01*
X141469922Y-62854625D01*
X141472286Y-62846515D01*
X141475056Y-62837938D01*
X141478231Y-62828893D01*
X141481811Y-62819381D01*
X141485796Y-62809402D01*
X141487214Y-62805972D01*
X141628485Y-62472825D01*
X141522385Y-62590257D01*
X141515312Y-62597869D01*
X141508308Y-62604733D01*
X141501372Y-62610848D01*
X141494505Y-62616214D01*
X141487707Y-62620831D01*
X141478749Y-62625823D01*
X141469914Y-62629484D01*
X141461200Y-62631813D01*
X141452609Y-62632811D01*
X141450480Y-62632853D01*
X141442404Y-62632295D01*
X141432495Y-62629814D01*
X141423570Y-62625349D01*
X141415627Y-62618900D01*
X141410315Y-62612760D01*
X141405557Y-62605504D01*
X141401351Y-62597132D01*
X141397698Y-62587644D01*
X141394598Y-62577040D01*
X141392839Y-62569350D01*
X141377403Y-62498226D01*
X141243362Y-62829615D01*
X141239059Y-62840170D01*
X141234821Y-62850511D01*
X141230647Y-62860639D01*
X141226537Y-62870553D01*
X141222492Y-62880254D01*
X141218511Y-62889742D01*
X141214595Y-62899017D01*
X141210744Y-62908078D01*
X141206957Y-62916926D01*
X141203234Y-62925560D01*
X141199576Y-62933982D01*
X141195982Y-62942190D01*
X141192453Y-62950184D01*
X141188989Y-62957965D01*
X141185588Y-62965533D01*
X141182253Y-62972888D01*
X141178982Y-62980029D01*
X141172633Y-62993672D01*
X141166542Y-63006461D01*
X141160709Y-63018397D01*
X141155134Y-63029479D01*
X141149818Y-63039708D01*
X141144759Y-63049084D01*
X141139958Y-63057607D01*
X141137654Y-63061548D01*
X141133052Y-63069178D01*
X141128281Y-63076679D01*
X141123343Y-63084052D01*
X141118237Y-63091297D01*
X141112963Y-63098413D01*
X141107521Y-63105402D01*
X141101911Y-63112262D01*
X141096133Y-63118994D01*
X141090187Y-63125598D01*
X141084073Y-63132073D01*
X141077792Y-63138420D01*
X141071342Y-63144639D01*
X141064725Y-63150730D01*
X141057939Y-63156693D01*
X141050986Y-63162527D01*
X141043865Y-63168233D01*
X141033315Y-63176089D01*
X141022573Y-63183437D01*
X141011639Y-63190279D01*
X141000512Y-63196614D01*
X140989193Y-63202443D01*
X140977681Y-63207764D01*
X140965977Y-63212579D01*
X140954081Y-63216886D01*
X140941993Y-63220687D01*
X140929712Y-63223982D01*
X140917239Y-63226769D01*
X140904573Y-63229050D01*
X140891715Y-63230824D01*
X140878665Y-63232091D01*
X140865423Y-63232851D01*
X140851988Y-63233104D01*
X140837746Y-63232818D01*
X140823842Y-63231959D01*
X140810275Y-63230528D01*
X140797045Y-63228525D01*
X140784153Y-63225949D01*
X140771598Y-63222800D01*
X140759381Y-63219079D01*
X140747501Y-63214786D01*
X140735958Y-63209920D01*
X140724752Y-63204482D01*
X140713884Y-63198471D01*
X140703354Y-63191888D01*
X140693160Y-63184733D01*
X140683304Y-63177005D01*
X140673786Y-63168704D01*
X140664605Y-63159831D01*
X140655897Y-63150498D01*
X140647752Y-63140817D01*
X140640168Y-63130788D01*
X140633146Y-63120411D01*
X140626686Y-63109685D01*
X140620787Y-63098612D01*
X140615451Y-63087190D01*
X140610676Y-63075421D01*
X140606463Y-63063303D01*
X140602811Y-63050838D01*
X140599721Y-63038024D01*
X140597194Y-63024863D01*
X140595227Y-63011353D01*
X140593823Y-62997495D01*
X140592980Y-62983290D01*
X140592699Y-62968736D01*
X140592810Y-62959124D01*
X140593141Y-62949586D01*
X140593694Y-62940119D01*
X140594467Y-62930725D01*
X140595461Y-62921404D01*
X140596677Y-62912155D01*
X140598113Y-62902979D01*
X140599770Y-62893875D01*
X140601648Y-62884844D01*
X140603748Y-62875885D01*
X140606068Y-62866999D01*
X140608609Y-62858185D01*
X140611371Y-62849444D01*
X140614354Y-62840775D01*
X140617558Y-62832179D01*
X140620983Y-62823655D01*
X140624629Y-62815204D01*
X140628496Y-62806826D01*
X140632583Y-62798519D01*
X140636892Y-62790286D01*
X140641422Y-62782125D01*
X140646173Y-62774036D01*
X140651144Y-62766020D01*
X140656337Y-62758076D01*
X140661751Y-62750205D01*
X140667385Y-62742407D01*
X140673241Y-62734680D01*
X140679317Y-62727027D01*
X140685615Y-62719446D01*
X140692133Y-62711937D01*
X140698872Y-62704501D01*
X140705833Y-62697138D01*
X140713571Y-62689417D01*
X140721547Y-62681885D01*
X140729759Y-62674542D01*
X140738207Y-62667389D01*
X140746892Y-62660425D01*
X140755814Y-62653650D01*
X140764972Y-62647065D01*
X140774367Y-62640669D01*
X140783999Y-62634462D01*
X140793867Y-62628444D01*
X140803972Y-62622616D01*
X140814313Y-62616977D01*
X140824891Y-62611528D01*
X140835706Y-62606267D01*
X140846757Y-62601196D01*
X140858045Y-62596314D01*
X140869440Y-62591653D01*
X140880814Y-62587293D01*
X140892167Y-62583233D01*
X140903498Y-62579474D01*
X140914808Y-62576015D01*
X140926097Y-62572858D01*
X140937364Y-62570001D01*
X140948610Y-62567445D01*
X140959835Y-62565189D01*
X140971038Y-62563235D01*
X140982219Y-62561581D01*
X140993380Y-62560227D01*
X141004519Y-62559175D01*
X141015636Y-62558423D01*
X141026733Y-62557972D01*
X141037808Y-62557822D01*
X141046076Y-62557995D01*
X141054028Y-62558515D01*
X141064140Y-62559749D01*
X141073690Y-62561599D01*
X141082678Y-62564066D01*
X141091104Y-62567149D01*
X141098969Y-62570850D01*
X141106272Y-62575167D01*
X141109713Y-62577556D01*
X141116032Y-62582646D01*
X141122747Y-62589583D01*
X141128145Y-62597159D01*
X141132227Y-62605375D01*
X141134992Y-62614229D01*
X141136440Y-62623723D01*
X141136677Y-62629727D01*
X141136231Y-62638077D01*
X141134894Y-62646030D01*
X141132665Y-62653586D01*
X141128626Y-62662473D01*
X141124391Y-62669137D01*
X141119265Y-62675403D01*
X141113248Y-62681272D01*
X141108150Y-62685414D01*
X141100850Y-62689755D01*
X141093129Y-62692953D01*
X141083921Y-62695770D01*
X141075482Y-62697748D01*
X141066091Y-62699482D01*
X141055747Y-62700972D01*
X141047364Y-62701929D01*
X141044451Y-62702218D01*
X141030939Y-62703609D01*
X141017758Y-62705240D01*
X141004909Y-62707113D01*
X140992391Y-62709228D01*
X140980204Y-62711583D01*
X140968348Y-62714180D01*
X140956824Y-62717018D01*
X140945630Y-62720096D01*
X140934768Y-62723417D01*
X140924238Y-62726978D01*
X140914038Y-62730781D01*
X140904170Y-62734824D01*
X140894633Y-62739109D01*
X140885428Y-62743635D01*
X140876553Y-62748403D01*
X140868010Y-62753411D01*
X140861162Y-62757767D01*
X140854491Y-62762286D01*
X140847997Y-62766969D01*
X140841681Y-62771815D01*
X140835541Y-62776824D01*
X140829578Y-62781997D01*
X140823793Y-62787333D01*
X140818184Y-62792832D01*
X140812753Y-62798495D01*
X140807499Y-62804321D01*
X140802422Y-62810310D01*
X140797522Y-62816463D01*
X140792798Y-62822778D01*
X140788252Y-62829258D01*
X140783884Y-62835900D01*
X140779692Y-62842706D01*
X140775740Y-62849613D01*
X140772044Y-62856558D01*
X140766977Y-62867047D01*
X140762484Y-62877622D01*
X140758565Y-62888282D01*
X140755219Y-62899029D01*
X140752446Y-62909861D01*
X140750248Y-62920779D01*
X140748622Y-62931783D01*
X140747571Y-62942873D01*
X140747093Y-62954049D01*
X140747061Y-62957794D01*
X140747185Y-62965698D01*
X140747839Y-62977154D01*
X140749052Y-62988129D01*
X140750824Y-62998623D01*
X140753157Y-63008636D01*
X140756050Y-63018168D01*
X140759502Y-63027220D01*
X140763514Y-63035790D01*
X140768086Y-63043880D01*
X140773218Y-63051489D01*
X140778910Y-63058617D01*
X140785090Y-63065217D01*
X140791685Y-63071167D01*
X140798696Y-63076469D01*
X140806122Y-63081121D01*
X140813964Y-63085124D01*
X140822221Y-63088478D01*
X140830894Y-63091183D01*
X140839983Y-63093239D01*
X140849487Y-63094645D01*
X140859407Y-63095402D01*
X140866251Y-63095547D01*
X140874511Y-63095325D01*
X140882634Y-63094661D01*
X140890619Y-63093554D01*
X140898467Y-63092005D01*
X140906178Y-63090013D01*
X140913751Y-63087578D01*
X140921186Y-63084701D01*
X140928485Y-63081381D01*
X140935645Y-63077618D01*
X140942669Y-63073412D01*
X140949555Y-63068764D01*
X140956304Y-63063673D01*
X140962915Y-63058139D01*
X140969389Y-63052163D01*
X140975726Y-63045744D01*
X140981925Y-63038882D01*
X140988117Y-63031460D01*
X140994384Y-63023358D01*
X141000726Y-63014576D01*
X141007143Y-63005116D01*
X141013634Y-62994976D01*
X141020201Y-62984157D01*
X141026842Y-62972658D01*
X141033558Y-62960480D01*
X141040349Y-62947623D01*
X141047214Y-62934087D01*
X141050675Y-62927064D01*
X141054154Y-62919871D01*
X141057653Y-62912509D01*
X141061169Y-62904976D01*
X141064705Y-62897274D01*
X141068259Y-62889402D01*
X141071832Y-62881360D01*
X141075424Y-62873148D01*
X141079034Y-62864767D01*
X141082664Y-62856215D01*
X141086311Y-62847494D01*
X141089978Y-62838603D01*
X141308233Y-62303418D01*
X141311877Y-62294853D01*
X141315677Y-62286840D01*
X141319632Y-62279380D01*
X141323743Y-62272473D01*
X141330201Y-62263148D01*
X141337010Y-62255066D01*
X141344169Y-62248227D01*
X141351678Y-62242632D01*
X141359538Y-62238281D01*
X141367748Y-62235172D01*
X141376308Y-62233307D01*
X141385219Y-62232685D01*
X141394490Y-62233148D01*
X141403132Y-62234536D01*
X141411145Y-62236850D01*
X141418527Y-62240089D01*
X141425280Y-62244254D01*
X141431403Y-62249344D01*
X141433676Y-62251639D01*
X141439175Y-62258192D01*
X141444435Y-62266129D01*
X141448471Y-62273475D01*
X141452354Y-62281706D01*
X141456085Y-62290822D01*
X141458783Y-62298240D01*
X141461395Y-62306157D01*
X141463921Y-62314571D01*
X141464744Y-62317487D01*
X141498352Y-62437654D01*
X141663265Y-62283488D01*
X141670027Y-62277336D01*
X141676735Y-62271581D01*
X141683387Y-62266223D01*
X141689985Y-62261262D01*
X141696528Y-62256698D01*
X141706238Y-62250595D01*
X141715826Y-62245386D01*
X141725289Y-62241070D01*
X141734629Y-62237647D01*
X141743846Y-62235116D01*
X141752938Y-62233479D01*
X141761908Y-62232735D01*
X141764870Y-62232685D01*
X141772963Y-62233000D01*
X141780733Y-62233943D01*
X141789991Y-62236007D01*
X141798742Y-62239053D01*
X141806988Y-62243082D01*
X141814729Y-62248094D01*
X141820557Y-62252811D01*
X141827143Y-62259249D01*
X141832613Y-62266107D01*
X141836966Y-62273385D01*
X141840203Y-62281082D01*
X141842324Y-62289199D01*
X141843329Y-62297737D01*
X141843418Y-62301269D01*
X141842997Y-62309369D01*
X141841735Y-62317767D01*
X141839632Y-62326466D01*
X141837159Y-62334159D01*
X141834625Y-62340739D01*
X141821925Y-62371415D01*
X141624186Y-62857947D01*
G37*
G36*
X142108067Y-62558018D02*
G01*
X142117700Y-62558606D01*
X142127112Y-62559587D01*
X142136302Y-62560960D01*
X142145271Y-62562725D01*
X142154019Y-62564883D01*
X142162545Y-62567433D01*
X142170850Y-62570376D01*
X142178934Y-62573710D01*
X142186796Y-62577437D01*
X142194437Y-62581557D01*
X142201857Y-62586068D01*
X142209055Y-62590972D01*
X142216032Y-62596268D01*
X142222788Y-62601957D01*
X142229322Y-62608038D01*
X142235545Y-62614422D01*
X142241366Y-62621019D01*
X142246786Y-62627831D01*
X142251804Y-62634856D01*
X142256421Y-62642094D01*
X142260637Y-62649547D01*
X142264451Y-62657213D01*
X142267863Y-62665093D01*
X142270875Y-62673187D01*
X142273484Y-62681494D01*
X142275692Y-62690015D01*
X142277499Y-62698750D01*
X142278904Y-62707698D01*
X142279908Y-62716860D01*
X142280510Y-62726236D01*
X142280711Y-62735826D01*
X142280474Y-62746773D01*
X142279763Y-62757707D01*
X142278578Y-62768627D01*
X142276919Y-62779533D01*
X142274786Y-62790425D01*
X142272179Y-62801304D01*
X142269098Y-62812169D01*
X142265543Y-62823020D01*
X142261514Y-62833858D01*
X142257011Y-62844682D01*
X142253746Y-62851890D01*
X142250314Y-62858981D01*
X142244933Y-62869279D01*
X142239275Y-62879172D01*
X142233338Y-62888660D01*
X142227123Y-62897742D01*
X142220630Y-62906419D01*
X142213858Y-62914691D01*
X142206809Y-62922557D01*
X142199481Y-62930019D01*
X142191875Y-62937075D01*
X142183990Y-62943725D01*
X142176828Y-62949080D01*
X142169605Y-62954008D01*
X142162320Y-62958508D01*
X142154974Y-62962581D01*
X142147568Y-62966226D01*
X142140100Y-62969444D01*
X142132571Y-62972234D01*
X142124981Y-62974598D01*
X142116976Y-62976567D01*
X142108202Y-62978273D01*
X142098658Y-62979717D01*
X142088345Y-62980899D01*
X142080105Y-62981613D01*
X142071433Y-62982179D01*
X142062327Y-62982597D01*
X142052789Y-62982868D01*
X142042818Y-62982991D01*
X142039399Y-62983000D01*
X142028440Y-62982916D01*
X142017936Y-62982667D01*
X142007887Y-62982251D01*
X141998293Y-62981668D01*
X141989153Y-62980920D01*
X141980469Y-62980004D01*
X141972240Y-62978923D01*
X141964465Y-62977675D01*
X141953656Y-62975491D01*
X141943871Y-62972933D01*
X141935109Y-62970000D01*
X141927371Y-62966693D01*
X141918645Y-62961702D01*
X141909725Y-62955237D01*
X141901380Y-62948396D01*
X141893611Y-62941181D01*
X141886417Y-62933589D01*
X141879799Y-62925622D01*
X141873756Y-62917280D01*
X141868289Y-62908562D01*
X141863397Y-62899468D01*
X141859081Y-62889999D01*
X141855340Y-62880155D01*
X141852175Y-62869935D01*
X141849585Y-62859339D01*
X141847571Y-62848368D01*
X141846132Y-62837022D01*
X141845269Y-62825300D01*
X141844981Y-62813202D01*
X141845275Y-62800365D01*
X141845306Y-62799915D01*
X141977459Y-62799915D01*
X141978087Y-62810286D01*
X141979973Y-62819637D01*
X141983116Y-62827968D01*
X141987515Y-62835278D01*
X141993172Y-62841569D01*
X142000086Y-62846839D01*
X142008257Y-62851090D01*
X142017685Y-62854320D01*
X142028371Y-62856530D01*
X142036193Y-62857437D01*
X142044573Y-62857890D01*
X142048973Y-62857947D01*
X142059082Y-62857581D01*
X142068598Y-62856482D01*
X142077522Y-62854650D01*
X142085854Y-62852085D01*
X142093593Y-62848788D01*
X142100740Y-62844758D01*
X142107295Y-62839995D01*
X142113258Y-62834500D01*
X142119927Y-62827185D01*
X142125941Y-62819674D01*
X142131298Y-62811967D01*
X142136000Y-62804064D01*
X142140045Y-62795966D01*
X142143435Y-62787672D01*
X142146168Y-62779182D01*
X142148246Y-62770496D01*
X142149667Y-62761615D01*
X142150432Y-62752537D01*
X142150578Y-62746377D01*
X142150134Y-62737734D01*
X142148803Y-62729635D01*
X142146585Y-62722080D01*
X142142752Y-62713731D01*
X142137641Y-62706166D01*
X142132406Y-62700459D01*
X142125207Y-62694483D01*
X142117239Y-62689743D01*
X142110011Y-62686738D01*
X142102248Y-62684591D01*
X142093952Y-62683303D01*
X142085121Y-62682874D01*
X142075070Y-62683445D01*
X142065240Y-62685158D01*
X142055629Y-62688012D01*
X142046237Y-62692009D01*
X142039338Y-62695755D01*
X142032563Y-62700144D01*
X142025911Y-62705175D01*
X142019383Y-62710849D01*
X142012978Y-62717165D01*
X142010871Y-62719413D01*
X142004900Y-62726329D01*
X141999516Y-62733376D01*
X141994720Y-62740553D01*
X141990510Y-62747861D01*
X141986889Y-62755299D01*
X141983854Y-62762868D01*
X141981407Y-62770567D01*
X141979547Y-62778397D01*
X141978274Y-62786358D01*
X141977589Y-62794449D01*
X141977459Y-62799915D01*
X141845306Y-62799915D01*
X141846157Y-62787746D01*
X141847626Y-62775343D01*
X141849683Y-62763157D01*
X141852328Y-62751187D01*
X141855560Y-62739434D01*
X141859380Y-62727899D01*
X141863788Y-62716579D01*
X141868784Y-62705477D01*
X141874367Y-62694591D01*
X141880538Y-62683923D01*
X141887296Y-62673471D01*
X141894643Y-62663235D01*
X141902577Y-62653217D01*
X141911099Y-62643415D01*
X141920208Y-62633830D01*
X141929742Y-62624626D01*
X141939488Y-62616015D01*
X141949446Y-62607999D01*
X141959617Y-62600576D01*
X141969999Y-62593747D01*
X141980594Y-62587512D01*
X141991401Y-62581871D01*
X142002420Y-62576824D01*
X142013652Y-62572370D01*
X142025095Y-62568510D01*
X142036751Y-62565244D01*
X142048619Y-62562572D01*
X142060699Y-62560494D01*
X142072991Y-62559009D01*
X142085496Y-62558118D01*
X142098212Y-62557822D01*
X142108067Y-62558018D01*
G37*
G36*
X142867690Y-62233208D02*
G01*
X142875793Y-62234774D01*
X142883388Y-62237384D01*
X142890475Y-62241039D01*
X142897054Y-62245737D01*
X142899134Y-62247535D01*
X142904778Y-62253338D01*
X142909887Y-62260697D01*
X142913406Y-62268693D01*
X142915337Y-62277324D01*
X142915742Y-62283879D01*
X142915229Y-62292464D01*
X142913939Y-62300437D01*
X142911863Y-62308840D01*
X142909459Y-62316384D01*
X142907535Y-62321590D01*
X142900892Y-62336049D01*
X142684981Y-62857947D01*
X142747508Y-62857947D01*
X142755955Y-62858146D01*
X142763857Y-62858744D01*
X142774688Y-62860387D01*
X142784293Y-62862927D01*
X142792672Y-62866364D01*
X142799824Y-62870697D01*
X142805751Y-62875926D01*
X142811746Y-62884293D01*
X142814811Y-62891614D01*
X142816650Y-62899831D01*
X142817263Y-62908945D01*
X142816876Y-62917448D01*
X142815712Y-62925468D01*
X142813168Y-62934815D01*
X142809412Y-62943408D01*
X142804444Y-62951248D01*
X142798264Y-62958334D01*
X142792448Y-62963460D01*
X142786000Y-62968040D01*
X142778966Y-62972009D01*
X142771346Y-62975367D01*
X142763139Y-62978115D01*
X142754346Y-62980252D01*
X142744967Y-62981778D01*
X142735002Y-62982694D01*
X142727144Y-62982980D01*
X142724451Y-62983000D01*
X142650201Y-62983000D01*
X142642380Y-62982670D01*
X142632583Y-62981204D01*
X142623507Y-62978566D01*
X142615150Y-62974756D01*
X142607515Y-62969774D01*
X142600600Y-62963619D01*
X142594405Y-62956292D01*
X142588931Y-62947792D01*
X142587675Y-62945484D01*
X142581036Y-62952188D01*
X142574307Y-62958233D01*
X142567490Y-62963619D01*
X142560582Y-62968345D01*
X142553586Y-62972412D01*
X142546500Y-62975819D01*
X142536914Y-62979336D01*
X142527168Y-62981681D01*
X142517264Y-62982853D01*
X142512253Y-62983000D01*
X142442497Y-62983000D01*
X142431281Y-62982635D01*
X142420495Y-62981543D01*
X142410137Y-62979723D01*
X142400209Y-62977174D01*
X142390711Y-62973898D01*
X142381642Y-62969893D01*
X142373002Y-62965160D01*
X142364791Y-62959699D01*
X142357010Y-62953509D01*
X142349658Y-62946592D01*
X142344995Y-62941576D01*
X142338465Y-62933534D01*
X142332578Y-62925014D01*
X142327333Y-62916017D01*
X142322730Y-62906542D01*
X142318769Y-62896590D01*
X142315450Y-62886161D01*
X142312774Y-62875254D01*
X142310740Y-62863870D01*
X142309741Y-62856015D01*
X142309028Y-62847948D01*
X142308599Y-62839669D01*
X142308457Y-62831178D01*
X142308739Y-62818097D01*
X142309137Y-62812030D01*
X142437612Y-62812030D01*
X142438018Y-62820235D01*
X142439819Y-62829921D01*
X142443061Y-62838172D01*
X142447744Y-62844988D01*
X142453869Y-62850369D01*
X142461434Y-62854315D01*
X142470441Y-62856826D01*
X142480888Y-62857902D01*
X142483725Y-62857947D01*
X142504632Y-62857947D01*
X142513706Y-62857504D01*
X142521974Y-62856176D01*
X142531175Y-62853271D01*
X142539116Y-62848983D01*
X142545799Y-62843311D01*
X142551222Y-62836255D01*
X142554653Y-62829615D01*
X142595882Y-62734263D01*
X142598851Y-62726971D01*
X142601597Y-62718778D01*
X142603316Y-62710569D01*
X142603502Y-62707494D01*
X142602389Y-62699182D01*
X142599051Y-62691612D01*
X142593486Y-62684784D01*
X142589434Y-62681311D01*
X142582057Y-62676524D01*
X142573802Y-62673104D01*
X142565857Y-62671234D01*
X142557239Y-62670411D01*
X142554653Y-62670369D01*
X142546680Y-62670764D01*
X142538806Y-62671949D01*
X142531031Y-62673924D01*
X142523357Y-62676688D01*
X142515782Y-62680243D01*
X142508306Y-62684588D01*
X142500930Y-62689723D01*
X142493654Y-62695648D01*
X142486477Y-62702363D01*
X142479400Y-62709867D01*
X142474737Y-62715309D01*
X142468103Y-62723763D01*
X142462120Y-62732343D01*
X142456791Y-62741050D01*
X142452114Y-62749885D01*
X142448090Y-62758847D01*
X142444718Y-62767935D01*
X142441999Y-62777151D01*
X142439933Y-62786494D01*
X142438519Y-62795964D01*
X142437757Y-62805561D01*
X142437612Y-62812030D01*
X142309137Y-62812030D01*
X142309586Y-62805182D01*
X142310998Y-62792433D01*
X142312975Y-62779851D01*
X142315517Y-62767435D01*
X142318623Y-62755185D01*
X142322294Y-62743102D01*
X142326531Y-62731185D01*
X142331331Y-62719435D01*
X142336697Y-62707851D01*
X142342628Y-62696433D01*
X142349123Y-62685182D01*
X142356183Y-62674097D01*
X142363808Y-62663179D01*
X142371998Y-62652427D01*
X142380752Y-62641841D01*
X142389859Y-62631667D01*
X142399104Y-62622149D01*
X142408489Y-62613288D01*
X142418012Y-62605083D01*
X142427674Y-62597534D01*
X142437475Y-62590642D01*
X142447415Y-62584406D01*
X142457494Y-62578826D01*
X142467711Y-62573903D01*
X142478068Y-62569637D01*
X142488564Y-62566027D01*
X142499198Y-62563073D01*
X142509971Y-62560775D01*
X142520884Y-62559134D01*
X142531935Y-62558150D01*
X142543125Y-62557822D01*
X142551325Y-62557979D01*
X142559315Y-62558450D01*
X142567097Y-62559237D01*
X142578377Y-62561005D01*
X142589186Y-62563482D01*
X142599525Y-62566666D01*
X142609394Y-62570557D01*
X142618791Y-62575156D01*
X142627719Y-62580463D01*
X142636175Y-62586477D01*
X142644162Y-62593199D01*
X142649224Y-62598073D01*
X142771736Y-62307131D01*
X142775741Y-62298116D01*
X142779940Y-62289683D01*
X142784332Y-62281831D01*
X142788919Y-62274561D01*
X142793699Y-62267872D01*
X142798673Y-62261766D01*
X142806498Y-62253696D01*
X142814759Y-62246935D01*
X142823456Y-62241482D01*
X142832590Y-62237338D01*
X142842159Y-62234503D01*
X142852165Y-62232976D01*
X142859078Y-62232685D01*
X142867690Y-62233208D01*
G37*
G36*
X143396817Y-62233208D02*
G01*
X143404921Y-62234774D01*
X143412516Y-62237384D01*
X143419603Y-62241039D01*
X143426181Y-62245737D01*
X143428261Y-62247535D01*
X143433906Y-62253338D01*
X143439015Y-62260697D01*
X143442534Y-62268693D01*
X143444464Y-62277324D01*
X143444870Y-62283879D01*
X143444357Y-62292464D01*
X143443067Y-62300437D01*
X143440991Y-62308840D01*
X143438587Y-62316384D01*
X143436663Y-62321590D01*
X143430020Y-62336049D01*
X143214109Y-62857947D01*
X143276635Y-62857947D01*
X143285082Y-62858146D01*
X143292984Y-62858744D01*
X143303815Y-62860387D01*
X143313421Y-62862927D01*
X143321799Y-62866364D01*
X143328952Y-62870697D01*
X143334879Y-62875926D01*
X143340873Y-62884293D01*
X143343939Y-62891614D01*
X143345778Y-62899831D01*
X143346391Y-62908945D01*
X143346003Y-62917448D01*
X143344840Y-62925468D01*
X143342296Y-62934815D01*
X143338539Y-62943408D01*
X143333572Y-62951248D01*
X143327392Y-62958334D01*
X143321576Y-62963460D01*
X143315128Y-62968040D01*
X143308094Y-62972009D01*
X143300473Y-62975367D01*
X143292267Y-62978115D01*
X143283474Y-62980252D01*
X143274095Y-62981778D01*
X143264130Y-62982694D01*
X143256272Y-62982980D01*
X143253579Y-62983000D01*
X143179329Y-62983000D01*
X143171508Y-62982670D01*
X143161711Y-62981204D01*
X143152634Y-62978566D01*
X143144278Y-62974756D01*
X143136643Y-62969774D01*
X143129727Y-62963619D01*
X143123533Y-62956292D01*
X143118059Y-62947792D01*
X143116803Y-62945484D01*
X143110164Y-62952188D01*
X143103435Y-62958233D01*
X143096617Y-62963619D01*
X143089710Y-62968345D01*
X143082714Y-62972412D01*
X143075628Y-62975819D01*
X143066041Y-62979336D01*
X143056296Y-62981681D01*
X143046392Y-62982853D01*
X143041381Y-62983000D01*
X142971625Y-62983000D01*
X142960409Y-62982635D01*
X142949622Y-62981543D01*
X142939265Y-62979723D01*
X142929337Y-62977174D01*
X142919839Y-62973898D01*
X142910769Y-62969893D01*
X142902129Y-62965160D01*
X142893919Y-62959699D01*
X142886138Y-62953509D01*
X142878786Y-62946592D01*
X142874123Y-62941576D01*
X142867593Y-62933534D01*
X142861706Y-62925014D01*
X142856460Y-62916017D01*
X142851857Y-62906542D01*
X142847897Y-62896590D01*
X142844578Y-62886161D01*
X142841902Y-62875254D01*
X142839868Y-62863870D01*
X142838869Y-62856015D01*
X142838155Y-62847948D01*
X142837727Y-62839669D01*
X142837584Y-62831178D01*
X142837867Y-62818097D01*
X142838265Y-62812030D01*
X142966740Y-62812030D01*
X142967145Y-62820235D01*
X142968947Y-62829921D01*
X142972189Y-62838172D01*
X142976872Y-62844988D01*
X142982997Y-62850369D01*
X142990562Y-62854315D01*
X142999568Y-62856826D01*
X143010016Y-62857902D01*
X143012853Y-62857947D01*
X143033760Y-62857947D01*
X143042834Y-62857504D01*
X143051101Y-62856176D01*
X143060302Y-62853271D01*
X143068244Y-62848983D01*
X143074927Y-62843311D01*
X143080349Y-62836255D01*
X143083781Y-62829615D01*
X143125009Y-62734263D01*
X143127979Y-62726971D01*
X143130725Y-62718778D01*
X143132444Y-62710569D01*
X143132630Y-62707494D01*
X143131517Y-62699182D01*
X143128178Y-62691612D01*
X143122614Y-62684784D01*
X143118561Y-62681311D01*
X143111185Y-62676524D01*
X143102930Y-62673104D01*
X143094985Y-62671234D01*
X143086367Y-62670411D01*
X143083781Y-62670369D01*
X143075808Y-62670764D01*
X143067934Y-62671949D01*
X143060159Y-62673924D01*
X143052484Y-62676688D01*
X143044909Y-62680243D01*
X143037434Y-62684588D01*
X143030058Y-62689723D01*
X143022781Y-62695648D01*
X143015605Y-62702363D01*
X143008528Y-62709867D01*
X143003865Y-62715309D01*
X142997230Y-62723763D01*
X142991248Y-62732343D01*
X142985919Y-62741050D01*
X142981242Y-62749885D01*
X142977218Y-62758847D01*
X142973846Y-62767935D01*
X142971127Y-62777151D01*
X142969060Y-62786494D01*
X142967646Y-62795964D01*
X142966885Y-62805561D01*
X142966740Y-62812030D01*
X142838265Y-62812030D01*
X142838714Y-62805182D01*
X142840126Y-62792433D01*
X142842103Y-62779851D01*
X142844644Y-62767435D01*
X142847751Y-62755185D01*
X142851422Y-62743102D01*
X142855658Y-62731185D01*
X142860459Y-62719435D01*
X142865825Y-62707851D01*
X142871755Y-62696433D01*
X142878251Y-62685182D01*
X142885311Y-62674097D01*
X142892936Y-62663179D01*
X142901126Y-62652427D01*
X142909880Y-62641841D01*
X142918987Y-62631667D01*
X142928232Y-62622149D01*
X142937616Y-62613288D01*
X142947139Y-62605083D01*
X142956802Y-62597534D01*
X142966603Y-62590642D01*
X142976542Y-62584406D01*
X142986621Y-62578826D01*
X142996839Y-62573903D01*
X143007196Y-62569637D01*
X143017691Y-62566027D01*
X143028326Y-62563073D01*
X143039099Y-62560775D01*
X143050011Y-62559134D01*
X143061063Y-62558150D01*
X143072253Y-62557822D01*
X143080453Y-62557979D01*
X143088443Y-62558450D01*
X143096225Y-62559237D01*
X143107505Y-62561005D01*
X143118314Y-62563482D01*
X143128653Y-62566666D01*
X143138521Y-62570557D01*
X143147919Y-62575156D01*
X143156846Y-62580463D01*
X143165303Y-62586477D01*
X143173289Y-62593199D01*
X143178352Y-62598073D01*
X143300864Y-62307131D01*
X143304869Y-62298116D01*
X143309068Y-62289683D01*
X143313460Y-62281831D01*
X143318047Y-62274561D01*
X143322827Y-62267872D01*
X143327801Y-62261766D01*
X143335626Y-62253696D01*
X143343887Y-62246935D01*
X143352584Y-62241482D01*
X143361717Y-62237338D01*
X143371287Y-62234503D01*
X143381293Y-62232976D01*
X143388205Y-62232685D01*
X143396817Y-62233208D01*
G37*
G36*
X143617316Y-62557967D02*
G01*
X143625994Y-62558402D01*
X143634449Y-62559127D01*
X143642682Y-62560142D01*
X143650692Y-62561447D01*
X143658478Y-62563042D01*
X143669741Y-62565979D01*
X143680501Y-62569568D01*
X143690761Y-62573810D01*
X143700519Y-62578704D01*
X143709775Y-62584251D01*
X143718530Y-62590451D01*
X143724088Y-62594946D01*
X143731910Y-62602079D01*
X143738963Y-62609626D01*
X143745246Y-62617589D01*
X143750759Y-62625968D01*
X143755504Y-62634763D01*
X143759479Y-62643973D01*
X143762685Y-62653599D01*
X143765121Y-62663640D01*
X143766788Y-62674097D01*
X143767685Y-62684969D01*
X143767856Y-62692448D01*
X143767621Y-62701411D01*
X143766913Y-62710079D01*
X143765734Y-62718453D01*
X143764083Y-62726532D01*
X143761960Y-62734317D01*
X143759366Y-62741807D01*
X143756300Y-62749002D01*
X143750817Y-62759242D01*
X143744272Y-62768820D01*
X143736666Y-62777735D01*
X143731005Y-62783309D01*
X143724873Y-62788590D01*
X143718270Y-62793575D01*
X143711194Y-62798266D01*
X143707480Y-62800501D01*
X143698565Y-62805172D01*
X143691205Y-62808267D01*
X143683269Y-62811011D01*
X143674756Y-62813405D01*
X143665665Y-62815449D01*
X143655998Y-62817142D01*
X143645753Y-62818485D01*
X143634932Y-62819478D01*
X143623533Y-62820120D01*
X143615614Y-62820354D01*
X143607438Y-62820431D01*
X143497431Y-62820431D01*
X143498402Y-62829224D01*
X143501314Y-62836845D01*
X143506169Y-62843293D01*
X143512965Y-62848568D01*
X143521702Y-62852672D01*
X143529530Y-62854980D01*
X143538450Y-62856628D01*
X143548462Y-62857617D01*
X143559566Y-62857947D01*
X143722916Y-62857947D01*
X143731292Y-62858146D01*
X143739127Y-62858744D01*
X143749868Y-62860387D01*
X143759392Y-62862927D01*
X143767700Y-62866364D01*
X143774793Y-62870697D01*
X143780670Y-62875926D01*
X143786614Y-62884293D01*
X143789654Y-62891614D01*
X143791477Y-62899831D01*
X143792085Y-62908945D01*
X143791704Y-62917448D01*
X143790559Y-62925468D01*
X143788054Y-62934815D01*
X143784357Y-62943408D01*
X143779468Y-62951248D01*
X143773386Y-62958334D01*
X143767661Y-62963460D01*
X143761250Y-62968040D01*
X143754228Y-62972009D01*
X143746595Y-62975367D01*
X143738352Y-62978115D01*
X143729498Y-62980252D01*
X143720034Y-62981778D01*
X143709959Y-62982694D01*
X143702002Y-62982980D01*
X143699273Y-62983000D01*
X143543739Y-62983000D01*
X143533033Y-62982833D01*
X143522652Y-62982334D01*
X143512596Y-62981502D01*
X143502865Y-62980337D01*
X143493460Y-62978840D01*
X143484379Y-62977009D01*
X143475624Y-62974846D01*
X143467194Y-62972351D01*
X143459088Y-62969522D01*
X143451309Y-62966360D01*
X143443854Y-62962866D01*
X143436724Y-62959039D01*
X143429920Y-62954880D01*
X143423440Y-62950387D01*
X143417286Y-62945562D01*
X143411457Y-62940404D01*
X143403356Y-62932072D01*
X143396052Y-62923049D01*
X143389544Y-62913337D01*
X143385648Y-62906478D01*
X143382107Y-62899313D01*
X143378920Y-62891840D01*
X143376086Y-62884061D01*
X143373607Y-62875975D01*
X143371482Y-62867582D01*
X143369712Y-62858883D01*
X143368295Y-62849876D01*
X143367233Y-62840563D01*
X143366524Y-62830943D01*
X143366170Y-62821016D01*
X143366126Y-62815937D01*
X143366406Y-62802886D01*
X143367246Y-62790060D01*
X143368647Y-62777460D01*
X143370608Y-62765086D01*
X143373129Y-62752938D01*
X143376210Y-62741016D01*
X143379852Y-62729320D01*
X143383122Y-62720390D01*
X143523809Y-62720390D01*
X143584381Y-62720390D01*
X143594876Y-62720184D01*
X143604307Y-62719565D01*
X143612673Y-62718535D01*
X143622171Y-62716520D01*
X143629776Y-62713772D01*
X143636620Y-62709307D01*
X143640930Y-62702438D01*
X143641436Y-62696942D01*
X143639627Y-62687911D01*
X143635373Y-62680749D01*
X143628673Y-62675455D01*
X143621222Y-62672471D01*
X143612072Y-62670784D01*
X143603530Y-62670369D01*
X143594230Y-62670808D01*
X143585308Y-62672127D01*
X143576764Y-62674325D01*
X143568597Y-62677403D01*
X143560808Y-62681360D01*
X143553398Y-62686196D01*
X143546364Y-62691911D01*
X143539709Y-62698505D01*
X143533432Y-62705979D01*
X143527532Y-62714332D01*
X143523809Y-62720390D01*
X143383122Y-62720390D01*
X143384053Y-62717849D01*
X143388815Y-62706605D01*
X143394137Y-62695587D01*
X143400020Y-62684794D01*
X143406463Y-62674228D01*
X143413465Y-62663887D01*
X143421029Y-62653772D01*
X143429152Y-62643884D01*
X143437836Y-62634221D01*
X143446905Y-62624969D01*
X143456187Y-62616315D01*
X143465682Y-62608257D01*
X143475388Y-62600796D01*
X143485306Y-62593932D01*
X143495437Y-62587665D01*
X143505780Y-62581995D01*
X143516335Y-62576921D01*
X143527102Y-62572445D01*
X143538082Y-62568565D01*
X143549274Y-62565282D01*
X143560677Y-62562596D01*
X143572294Y-62560507D01*
X143584122Y-62559015D01*
X143596162Y-62558120D01*
X143608415Y-62557822D01*
X143617316Y-62557967D01*
G37*
G36*
X143947815Y-62682874D02*
G01*
X143929057Y-62725665D01*
X143924195Y-62735897D01*
X143919062Y-62745121D01*
X143913657Y-62753340D01*
X143907982Y-62760552D01*
X143902035Y-62766758D01*
X143895816Y-62771958D01*
X143887103Y-62777325D01*
X143877907Y-62780903D01*
X143868229Y-62782692D01*
X143863209Y-62782916D01*
X143854192Y-62782401D01*
X143845752Y-62780855D01*
X143837889Y-62778279D01*
X143830602Y-62774673D01*
X143823893Y-62770036D01*
X143821785Y-62768261D01*
X143816207Y-62762512D01*
X143811158Y-62755161D01*
X143807680Y-62747119D01*
X143805773Y-62738385D01*
X143805372Y-62731722D01*
X143806330Y-62723313D01*
X143808401Y-62714870D01*
X143811098Y-62706308D01*
X143813997Y-62698240D01*
X143817487Y-62689322D01*
X143879622Y-62537696D01*
X143884000Y-62527884D01*
X143888708Y-62519037D01*
X143893745Y-62511155D01*
X143899113Y-62504238D01*
X143904810Y-62498286D01*
X143910836Y-62493299D01*
X143919385Y-62488152D01*
X143928519Y-62484720D01*
X143938240Y-62483005D01*
X143943321Y-62482790D01*
X143952993Y-62483389D01*
X143961688Y-62485184D01*
X143969406Y-62488176D01*
X143976147Y-62492364D01*
X143981911Y-62497750D01*
X143986698Y-62504332D01*
X143990508Y-62512112D01*
X143993341Y-62521087D01*
X143997640Y-62538087D01*
X144000316Y-62545933D01*
X144004858Y-62552579D01*
X144007605Y-62554500D01*
X144015281Y-62556524D01*
X144023389Y-62557354D01*
X144032448Y-62557740D01*
X144040041Y-62557822D01*
X144168610Y-62557822D01*
X144177341Y-62558027D01*
X144185509Y-62558643D01*
X144196704Y-62560337D01*
X144206632Y-62562954D01*
X144215292Y-62566496D01*
X144222685Y-62570962D01*
X144228811Y-62576351D01*
X144233670Y-62582665D01*
X144237260Y-62589902D01*
X144239584Y-62598064D01*
X144240640Y-62607149D01*
X144240711Y-62610383D01*
X144240354Y-62619161D01*
X144239285Y-62627373D01*
X144237503Y-62635018D01*
X144233493Y-62645425D01*
X144227879Y-62654557D01*
X144220661Y-62662415D01*
X144211839Y-62668999D01*
X144201413Y-62674308D01*
X144193571Y-62677140D01*
X144185017Y-62679405D01*
X144175749Y-62681104D01*
X144165769Y-62682237D01*
X144155075Y-62682803D01*
X144149461Y-62682874D01*
X144143404Y-62688150D01*
X144132828Y-62698165D01*
X144122934Y-62707890D01*
X144113722Y-62717326D01*
X144105192Y-62726471D01*
X144097345Y-62735327D01*
X144090181Y-62743892D01*
X144083698Y-62752167D01*
X144077898Y-62760152D01*
X144072781Y-62767848D01*
X144068345Y-62775253D01*
X144064592Y-62782368D01*
X144060242Y-62792497D01*
X144057428Y-62801973D01*
X144056148Y-62810796D01*
X144056063Y-62813593D01*
X144056506Y-62821519D01*
X144058475Y-62830875D01*
X144062020Y-62838845D01*
X144067140Y-62845429D01*
X144073835Y-62850627D01*
X144082106Y-62854439D01*
X144091952Y-62856864D01*
X144100370Y-62857774D01*
X144106475Y-62857947D01*
X144175840Y-62857947D01*
X144184287Y-62858144D01*
X144192189Y-62858735D01*
X144203020Y-62860359D01*
X144212625Y-62862870D01*
X144221004Y-62866267D01*
X144228157Y-62870550D01*
X144234083Y-62875719D01*
X144240078Y-62883990D01*
X144243143Y-62891227D01*
X144244982Y-62899350D01*
X144245595Y-62908359D01*
X144245214Y-62916999D01*
X144244069Y-62925138D01*
X144242161Y-62932777D01*
X144238702Y-62941621D01*
X144234051Y-62949683D01*
X144228207Y-62956963D01*
X144221171Y-62963460D01*
X144214760Y-62968040D01*
X144207738Y-62972009D01*
X144200105Y-62975367D01*
X144191862Y-62978115D01*
X144183008Y-62980252D01*
X144173544Y-62981778D01*
X144163469Y-62982694D01*
X144155512Y-62982980D01*
X144152783Y-62983000D01*
X144044926Y-62983000D01*
X144034806Y-62982666D01*
X144025037Y-62981667D01*
X144015618Y-62980001D01*
X144006549Y-62977669D01*
X143997831Y-62974670D01*
X143989463Y-62971006D01*
X143981445Y-62966675D01*
X143973778Y-62961677D01*
X143966461Y-62956013D01*
X143959494Y-62949683D01*
X143955044Y-62945093D01*
X143948829Y-62937786D01*
X143943224Y-62930081D01*
X143938231Y-62921978D01*
X143933850Y-62913476D01*
X143930080Y-62904575D01*
X143926921Y-62895277D01*
X143924374Y-62885579D01*
X143922438Y-62875484D01*
X143921113Y-62864990D01*
X143920400Y-62854097D01*
X143920264Y-62846614D01*
X143920554Y-62837028D01*
X143921424Y-62827515D01*
X143922874Y-62818075D01*
X143924905Y-62808708D01*
X143927515Y-62799414D01*
X143930705Y-62790194D01*
X143934476Y-62781047D01*
X143938826Y-62771974D01*
X143942594Y-62765015D01*
X143946864Y-62757768D01*
X143951634Y-62750232D01*
X143956907Y-62742408D01*
X143962680Y-62734295D01*
X143968955Y-62725894D01*
X143975732Y-62717205D01*
X143983010Y-62708226D01*
X143988141Y-62702081D01*
X143993494Y-62695807D01*
X143999070Y-62689404D01*
X144004870Y-62682874D01*
X143947815Y-62682874D01*
G37*
D13*
X137522295Y-56597475D02*
X136722295Y-56597475D01*
X136722295Y-56597475D02*
X136722295Y-56406999D01*
X136722295Y-56406999D02*
X136760390Y-56292713D01*
X136760390Y-56292713D02*
X136836580Y-56216523D01*
X136836580Y-56216523D02*
X136912771Y-56178428D01*
X136912771Y-56178428D02*
X137065152Y-56140332D01*
X137065152Y-56140332D02*
X137179438Y-56140332D01*
X137179438Y-56140332D02*
X137331819Y-56178428D01*
X137331819Y-56178428D02*
X137408009Y-56216523D01*
X137408009Y-56216523D02*
X137484200Y-56292713D01*
X137484200Y-56292713D02*
X137522295Y-56406999D01*
X137522295Y-56406999D02*
X137522295Y-56597475D01*
X137522295Y-55378428D02*
X137522295Y-55835571D01*
X137522295Y-55606999D02*
X136722295Y-55606999D01*
X136722295Y-55606999D02*
X136836580Y-55683190D01*
X136836580Y-55683190D02*
X136912771Y-55759380D01*
X136912771Y-55759380D02*
X136950866Y-55835571D01*
X141852667Y-56750295D02*
X141586000Y-56369342D01*
X141395524Y-56750295D02*
X141395524Y-55950295D01*
X141395524Y-55950295D02*
X141700286Y-55950295D01*
X141700286Y-55950295D02*
X141776476Y-55988390D01*
X141776476Y-55988390D02*
X141814571Y-56026485D01*
X141814571Y-56026485D02*
X141852667Y-56102676D01*
X141852667Y-56102676D02*
X141852667Y-56216961D01*
X141852667Y-56216961D02*
X141814571Y-56293152D01*
X141814571Y-56293152D02*
X141776476Y-56331247D01*
X141776476Y-56331247D02*
X141700286Y-56369342D01*
X141700286Y-56369342D02*
X141395524Y-56369342D01*
X142157428Y-56026485D02*
X142195524Y-55988390D01*
X142195524Y-55988390D02*
X142271714Y-55950295D01*
X142271714Y-55950295D02*
X142462190Y-55950295D01*
X142462190Y-55950295D02*
X142538381Y-55988390D01*
X142538381Y-55988390D02*
X142576476Y-56026485D01*
X142576476Y-56026485D02*
X142614571Y-56102676D01*
X142614571Y-56102676D02*
X142614571Y-56178866D01*
X142614571Y-56178866D02*
X142576476Y-56293152D01*
X142576476Y-56293152D02*
X142119333Y-56750295D01*
X142119333Y-56750295D02*
X142614571Y-56750295D01*
D14*
%TO.C,D1*%
X137822000Y-57517500D02*
X139292000Y-57517500D01*
X139292000Y-57517500D02*
X139292000Y-55232500D01*
X137822000Y-55232500D02*
X137822000Y-57517500D01*
D15*
%TO.C,P1*%
X144653000Y-61470000D02*
X144399000Y-61470000D01*
X144399000Y-60327000D02*
X144399000Y-61470000D01*
X144399000Y-52834000D02*
X144399000Y-53977000D01*
X144653000Y-52834000D02*
X144399000Y-52834000D01*
D14*
%TO.C,R2*%
X142033258Y-55767500D02*
X141558742Y-55767500D01*
X142033258Y-54722500D02*
X141558742Y-54722500D01*
%TD*%
M02*
